<?xml version="1.0" encoding="UTF-8"?>
<svg version="1.1" xmlns="http://www.w3.org/2000/svg" width="1024" height="1024">
<path d="M0 0 C0.9847934 0.00082581 1.96958679 0.00165161 2.98422241 0.00250244 C17.98432997 0.03137306 32.63024333 0.75578354 47.49072266 2.93652344 C49.96371012 3.28947994 52.43437589 3.58484691 54.91796875 3.8515625 C55.64137451 3.93100098 56.36478027 4.01043945 57.11010742 4.09228516 C57.77502197 4.16495605 58.43993652 4.23762695 59.125 4.3125 C65.33567453 5.00257495 71.13367051 6.60399567 77.125 8.3125 C78.04635742 8.56692871 78.96771484 8.82135742 79.91699219 9.08349609 C98.02031636 14.08548063 115.46888704 20.05137029 132.5 28 C133.26675049 28.35626465 134.03350098 28.7125293 134.82348633 29.07958984 C139.65002649 31.39885728 143.97544557 33.90814979 148.125 37.3125 C150.06898363 43.09112287 150.60770556 50.26099629 147.9140625 55.8046875 C144.938993 59.61780475 141.99071644 61.77654477 137.3125 63.0625 C133.49096336 63.48711518 130.98173224 63.13521887 127.45703125 61.625 C126.58602783 61.25600586 125.71502441 60.88701172 124.81762695 60.50683594 C121.33253184 58.96099449 117.85835116 57.39275439 114.3894043 55.81103516 C97.82768182 48.33098139 80.649155 42.8605579 62.9375 38.8125 C62.23778076 38.65217285 61.53806152 38.4918457 60.81713867 38.32666016 C56.53111945 37.41895814 52.49852821 37.17635904 48.125 37.3125 C48.125 36.6525 48.125 35.9925 48.125 35.3125 C47.30257813 35.25191406 46.48015625 35.19132812 45.6328125 35.12890625 C44.51648438 35.04511719 43.40015625 34.96132813 42.25 34.875 C41.15945313 34.79378906 40.06890625 34.71257812 38.9453125 34.62890625 C37.01215455 34.46879808 35.07798953 34.30655019 33.15356445 34.06298828 C-33.4945888 25.95643846 -105.12537485 45.33634485 -158.08496094 86.53149414 C-159.68470901 87.78799297 -161.28019403 89.04973723 -162.875 90.3125 C-164.31746094 91.44365234 -164.31746094 91.44365234 -165.7890625 92.59765625 C-172.26368804 97.76823749 -178.10935251 103.36975071 -183.875 109.3125 C-184.68324219 110.11945313 -185.49148438 110.92640625 -186.32421875 111.7578125 C-220.54710503 146.03310749 -242.96202182 189.65427851 -252.625 237 C-252.92325684 238.45865479 -252.92325684 238.45865479 -253.22753906 239.94677734 C-256.39703661 256.31345376 -257.28316308 272.36084466 -257.25 289 C-257.24945618 290.02963867 -257.24891235 291.05927734 -257.24835205 292.12011719 C-257.16694164 325.7680172 -253.06684361 363.13012082 -236.875 393.3125 C-235.91722656 392.57386719 -234.95945312 391.83523438 -233.97265625 391.07421875 C-209.22536444 372.14500927 -181.54826193 353.49932242 -148.875 356.3125 C-139.00951519 357.74747961 -129.66389281 360.58204645 -120.875 365.3125 C-119.90175781 365.82683594 -118.92851562 366.34117187 -117.92578125 366.87109375 C-111.59815319 370.37924094 -106.03898532 374.37434632 -100.53515625 379.0625 C-97.98175473 381.22220525 -95.35294039 383.23159018 -92.6875 385.25 C-88.43478765 388.63877551 -85.22935091 392.3420918 -81.94921875 396.66015625 C-78.88886429 400.57349086 -75.50784835 404.17158406 -72.14453125 407.82421875 C-69.62631057 410.5851595 -67.24466542 413.42447027 -64.875 416.3125 C-64.215 416.9725 -63.555 417.6325 -62.875 418.3125 C-62.029375 419.3025 -61.18375 420.2925 -60.3125 421.3125 C-59.508125 422.24835938 -59.508125 422.24835938 -58.6875 423.203125 C-57.43056142 424.66594145 -56.18105324 426.1351627 -54.9375 427.609375 C-45.37611395 438.64715154 -34.57969199 447.15444924 -21.875 454.3125 C-20.78251953 454.94285156 -20.78251953 454.94285156 -19.66796875 455.5859375 C-17.76760522 456.61546234 -15.87385191 457.49154297 -13.875 458.3125 C-13.1634375 458.61027344 -12.451875 458.90804688 -11.71875 459.21484375 C4.10662722 464.64855713 22.80505149 462.21368048 37.6015625 455.2421875 C55.88091015 446.24613712 71.39594172 433.70186798 86.99023438 420.76513672 C116.82160606 396.10908005 148.32536507 377.51141946 188.125 380.3125 C192.94771227 380.80086191 197.49696027 381.87169518 202.125 383.3125 C202.74890625 383.50585938 203.3728125 383.69921875 204.015625 383.8984375 C213.42675782 386.89962552 221.68803503 391.07227271 230.015625 396.359375 C232.94388196 398.27845695 232.94388196 398.27845695 235.484375 399.453125 C237.125 400.3125 237.125 400.3125 238.125 402.3125 C242.36717353 394.51863438 245.3613031 386.47774946 248.125 378.0625 C248.34188477 377.40897552 248.55876953 376.75545105 248.78222656 376.0821228 C252.67122559 364.32151625 255.79549398 352.48157927 258.125 340.3125 C258.31046387 339.36511963 258.49592773 338.41773926 258.68701172 337.44165039 C258.87021973 336.47864014 259.05342773 335.51562988 259.2421875 334.5234375 C259.40831543 333.65122559 259.57444336 332.77901367 259.74560547 331.88037109 C260.32070833 327.98787954 260.25379192 324.2406535 260.125 320.3125 C260.785 320.3125 261.445 320.3125 262.125 320.3125 C262.20249815 313.32811792 262.25419008 306.34385059 262.28979492 299.35913086 C262.30467285 296.99417989 262.3249815 294.62925542 262.35131836 292.2644043 C262.56600254 272.4587365 261.31747377 253.26171143 256.67578125 233.95703125 C256.125 231.3125 256.125 231.3125 256.125 227.3125 C255.465 226.9825 254.805 226.6525 254.125 226.3125 C253.60644531 224.37011719 253.60644531 224.37011719 253.203125 221.859375 C252.23318438 216.54923317 250.70015288 211.63392864 248.875 206.5625 C248.57070068 205.69778076 248.26640137 204.83306152 247.95288086 203.94213867 C246.08474072 198.71473848 243.99475801 193.67246943 241.6875 188.625 C239.41661996 183.44398415 237.74390506 178.95293814 239.125 173.3125 C240.9375 169.9375 240.9375 169.9375 243.125 167.3125 C243.57875 166.735 244.0325 166.1575 244.5 165.5625 C248.24837891 162.67913161 252.02216769 162.11204721 256.625 162.4375 C261.03145755 163.11029805 263.79504265 164.20958519 267.125 167.3125 C279.63879245 188.55055463 285.96302976 214.73823048 290.4375 238.75 C290.58485596 239.53971191 290.73221191 240.32942383 290.8840332 241.14306641 C293.56554425 256.68546261 294.45524199 272.17582597 294.38574219 287.92822266 C294.37500769 290.81043516 294.38572122 293.69202472 294.3984375 296.57421875 C294.4349138 341.0260416 282.96212072 385.28394231 262.06640625 424.52685547 C261.13293534 426.29744837 260.23810417 428.0882366 259.34375 429.87890625 C248.68505556 451.0103045 234.1577568 470.00731657 218.55224609 487.68554688 C216.77973191 489.70607963 215.04952816 491.76145531 213.3125 493.8125 C210.51650775 497.00693831 207.45165822 499.73285744 204.21484375 502.47265625 C201.96868644 504.45011436 199.89839653 506.54211266 197.8125 508.6875 C192.89310062 513.64873101 187.62802606 518.01476751 182.125 522.3125 C181.5489502 522.76496094 180.97290039 523.21742188 180.37939453 523.68359375 C156.12214086 542.64240043 129.09407127 557.82692665 100.125 568.3125 C98.94421875 568.7559375 97.7634375 569.199375 96.546875 569.65625 C25.22882547 595.05719915 -54.73463827 588.6051477 -122.78125 556.5625 C-147.20897663 544.79221121 -169.55156774 529.86882291 -189.89453125 511.93359375 C-191.98847369 510.09213191 -194.08807063 508.33670182 -196.26171875 506.59765625 C-197.55529297 505.46650391 -197.55529297 505.46650391 -198.875 504.3125 C-198.875 503.6525 -198.875 502.9925 -198.875 502.3125 C-199.535 502.3125 -200.195 502.3125 -200.875 502.3125 C-202.3203125 500.84375 -202.3203125 500.84375 -204 498.8125 C-206.42697238 495.94607583 -208.90361585 493.27449481 -211.625 490.6875 C-216.79262491 485.58970786 -221.10154085 479.84345446 -225.50341797 474.08984375 C-226.77674516 472.43982205 -228.07170413 470.81073471 -229.37890625 469.1875 C-255.57187451 436.22556242 -274.359009 395.99224799 -282.94116211 354.86889648 C-283.27105181 353.29441556 -283.60371814 351.72051375 -283.93920898 350.1472168 C-284.42585619 347.86382884 -284.90328164 345.57867491 -285.37890625 343.29296875 C-285.60387535 342.25042183 -285.60387535 342.25042183 -285.83338928 341.18681335 C-286.72704001 336.83161764 -287.01334335 332.75285199 -286.875 328.3125 C-287.535 327.9825 -288.195 327.6525 -288.875 327.3125 C-290.52511468 284.87909884 -289.6370257 244.44177578 -277.328125 203.34765625 C-276.23533215 199.68599472 -275.36369124 196.11271739 -274.875 192.3125 C-274.215 192.3125 -273.555 192.3125 -272.875 192.3125 C-272.71717041 191.65258057 -272.55934082 190.99266113 -272.39672852 190.31274414 C-270.55917904 183.07639926 -267.97946272 176.50020861 -264.8125 169.75 C-264.32644287 168.70569824 -263.84038574 167.66139648 -263.33959961 166.58544922 C-249.08739723 136.34088271 -229.91449978 108.61358511 -205.875 85.3125 C-205.08351563 84.5184375 -204.29203125 83.724375 -203.4765625 82.90625 C-184.8681907 64.3537592 -164.13828777 49.65429452 -141.40625 36.5715332 C-138.70063524 35.01037517 -136.12225482 33.50302911 -133.64453125 31.59375 C-131.66945345 30.16367159 -130.22792214 29.89589975 -127.875 29.3125 C-126.36574202 28.71125366 -124.86890952 28.07828377 -123.3828125 27.421875 C-122.51881836 27.04426025 -121.65482422 26.66664551 -120.76464844 26.27758789 C-119.85231445 25.87660889 -118.93998047 25.47562988 -118 25.0625 C-110.52068239 21.80144001 -103.05024039 18.82411041 -95.296875 16.28515625 C-92.72369974 15.56266994 -92.72369974 15.56266994 -91.875 13.3125 C-90.01219053 13.06626656 -88.14764289 12.82974635 -86.27832031 12.63916016 C-81.83423536 12.03511854 -77.56458119 10.69698158 -73.25 9.5 C-65.3794008 7.38679802 -57.51908485 5.51967001 -49.5 4.0625 C-48.68321777 3.91192139 -47.86643555 3.76134277 -47.02490234 3.60620117 C-44.31316 3.13240529 -41.59862784 2.71266956 -38.875 2.3125 C-37.66150879 2.13372314 -36.44801758 1.95494629 -35.19775391 1.77075195 C-23.46703378 0.15999225 -11.82693521 -0.04205287 0 0 Z " fill="#2A8B9F" transform="translate(507.875,234.6875)"/>
<path d="M0 0 C0.71910553 -0.00817749 1.43821106 -0.01635498 2.17910767 -0.02478027 C4.55925677 -0.04959313 6.93934627 -0.06614204 9.31958008 -0.08056641 C10.13428583 -0.08589008 10.94899158 -0.09121376 11.78838539 -0.09669876 C16.10289188 -0.12341588 20.41736961 -0.14279306 24.73193359 -0.15722656 C28.29469564 -0.17055077 31.8568829 -0.19837662 35.41943359 -0.23925781 C39.72829144 -0.28869858 44.03662907 -0.31336173 48.34575844 -0.32045364 C49.98315421 -0.32714717 51.62053925 -0.34231968 53.25777245 -0.36634445 C68.70138911 -0.57998685 68.70138911 -0.57998685 74.51411438 3.81845093 C82.11802659 11.35069832 80.93860788 21.86704833 81.01513672 31.88916016 C81.01894506 34.74565996 81.00966391 37.60201807 80.99926758 40.45849609 C80.99739754 41.98834181 80.99597641 43.51818813 80.99497986 45.04803467 C80.99120073 49.03291541 80.98141099 53.01775845 80.97027588 57.00262451 C80.95996155 61.08556611 80.95546098 65.16851392 80.95043945 69.25146484 C80.93978357 77.2319507 80.92276402 85.21240618 80.90161133 93.19287109 C81.8654776 93.18398865 82.82934387 93.1751062 83.82241821 93.16595459 C92.91505984 93.08479554 102.00762777 93.02487061 111.1005497 92.98562241 C115.77511338 92.96476593 120.44938417 92.93648385 125.1237793 92.89111328 C129.63659918 92.84758613 134.1491377 92.82371939 138.66215134 92.81336212 C140.38212894 92.80598306 142.10209149 92.79157331 143.82194901 92.76995087 C146.23506954 92.7408248 148.64703412 92.73691882 151.06030273 92.73876953 C151.76808868 92.72438843 152.47587463 92.71000732 153.20510864 92.69519043 C158.2285508 92.73675555 161.0181742 94.07522936 164.90161133 97.19287109 C169.69214702 102.51568853 171.14883229 106.04194311 171.19213867 113.22119141 C171.1988559 113.92093582 171.20557312 114.62068024 171.2124939 115.34162903 C171.23146672 117.65149065 171.23539812 119.96106142 171.23754883 122.27099609 C171.24397884 123.88279335 171.25070735 125.49458945 171.25772095 127.10638428 C171.26969303 130.48566389 171.273402 133.8648413 171.2722168 137.24414062 C171.27201397 141.55937113 171.29927822 145.87394035 171.33376122 150.18901443 C171.35608205 153.51948003 171.36005271 156.84978803 171.35899734 160.18032074 C171.36134696 161.77023337 171.37013432 163.36015077 171.38566208 164.94998932 C171.54010868 182.4017916 171.54010868 182.4017916 165.12036133 189.03271484 C164.55317383 189.39494141 163.98598633 189.75716797 163.40161133 190.13037109 C162.83442383 190.51064453 162.26723633 190.89091797 161.68286133 191.28271484 C157.49611088 193.42199742 153.42383272 193.32704529 148.77807617 193.35058594 C148.068694 193.35566666 147.35931183 193.36074738 146.62843323 193.36598206 C145.09247434 193.37665917 143.55650015 193.38528972 142.02051926 193.39210129 C139.59161028 193.40391039 137.16287749 193.42336507 134.73403931 193.44522095 C127.82999484 193.50679292 120.92597229 193.56099616 114.02172852 193.59423828 C109.79594689 193.61513097 105.57049308 193.6503809 101.34489822 193.69499588 C99.73334217 193.70918959 98.12172821 193.71788589 96.51011276 193.72105026 C94.26184236 193.72593496 92.01445056 193.74902437 89.76635742 193.77636719 C88.48602631 193.78445404 87.20569519 193.79254089 85.88656616 193.8008728 C84.90153107 193.93023224 83.91649597 194.05959167 82.90161133 194.19287109 C80.60826323 197.63289323 80.66120623 198.85188163 80.69042969 202.89501953 C80.69549782 204.65395538 80.69549782 204.65395538 80.70066833 206.44842529 C80.72085777 208.35606659 80.72085777 208.35606659 80.74145508 210.30224609 C80.74940721 212.3112954 80.75735362 214.32034474 80.76498508 216.32939529 C80.77812972 219.15358919 80.80030694 221.97768431 80.8225708 224.80181885 C80.86557939 230.36897133 80.89580754 235.93615684 80.91861153 241.5034256 C80.92862123 243.42563569 80.94598764 245.34780311 80.96360779 247.2699585 C80.99776048 253.59987218 80.91046854 259.91533334 80.58740234 266.23681641 C80.52964127 267.4267218 80.47188019 268.6166272 80.41236877 269.84259033 C79.59549576 275.20081659 77.56579524 279.11854662 73.33911133 282.50537109 C72.73969727 282.99650391 72.1402832 283.48763672 71.52270508 283.99365234 C67.75070019 286.78402705 63.87099853 286.5521512 59.33911133 286.75537109 C58.41179199 286.79710449 57.48447266 286.83883789 56.52905273 286.88183594 C45.9480292 287.2870807 35.36406683 287.30363068 24.77661133 287.31787109 C23.8860202 287.32045929 22.99542908 287.32304749 22.07785034 287.32571411 C-7.21859141 287.39272628 -7.21859141 287.39272628 -13.09838867 283.19287109 C-21.24382546 275.06669066 -21.00504394 266.64274496 -21.14505005 255.46881104 C-21.11917316 251.58689813 -21.0567085 247.70676452 -20.97729492 243.82568359 C-20.95290633 242.41080631 -20.92906769 240.99591945 -20.90574646 239.58102417 C-20.84377231 235.90843552 -20.77447438 232.23602272 -20.70349121 228.56359863 C-20.6320099 224.79557101 -20.56767544 221.02742152 -20.50268555 217.25927734 C-20.37479558 209.90367356 -20.23914498 202.54824114 -20.09838867 195.19287109 C-23.58499482 194.03066904 -26.33340406 194.054036 -30.01318359 194.03515625 C-30.71278198 194.03007553 -31.41238037 194.02499481 -32.13317871 194.01976013 C-33.65222614 194.00906415 -35.17128925 194.00044094 -36.69035912 193.9936409 C-39.09983347 193.98183078 -41.50913028 193.96237049 -43.91853333 193.94052124 C-50.76919587 193.8789912 -57.61984144 193.82496454 -64.47070312 193.79150391 C-68.6629377 193.77047865 -72.85485012 193.73510925 -77.0468998 193.69074631 C-78.63954165 193.67664406 -80.23224053 193.66787699 -81.82494164 193.66469193 C-99.88577886 193.62476558 -99.88577886 193.62476558 -106.12182617 188.54443359 C-106.79084961 187.68978516 -106.79084961 187.68978516 -107.47338867 186.81787109 C-108.16561523 185.97095703 -108.16561523 185.97095703 -108.87182617 185.10693359 C-111.80333971 180.53227871 -112.35537267 176.62927089 -112.38891602 171.23461914 C-112.39563324 170.55423584 -112.40235046 169.87385254 -112.40927124 169.17285156 C-112.42820016 166.93335577 -112.43217297 164.69416056 -112.43432617 162.45458984 C-112.44075831 160.88906229 -112.44748698 159.32353593 -112.45449829 157.75801086 C-112.46645874 154.47886368 -112.47018046 151.19982174 -112.46899414 147.9206543 C-112.46879117 143.73435992 -112.49607567 139.54874606 -112.53053856 135.36261272 C-112.55286139 132.12908374 -112.55683002 128.89571704 -112.55577469 125.66211891 C-112.55812323 124.11965404 -112.56690443 122.57718419 -112.58243942 121.03479576 C-112.73788073 104.00590607 -112.73788073 104.00590607 -106.61557007 97.65458679 C-101.83438397 93.41961215 -97.83638796 93.03513298 -91.72119141 92.97167969 C-90.59881577 92.95442085 -90.59881577 92.95442085 -89.45376587 92.93681335 C-86.97987974 92.90012319 -84.50596782 92.87048046 -82.03198242 92.84130859 C-80.31469867 92.81819415 -78.5974186 92.79480383 -76.88014221 92.77114868 C-73.28145545 92.72270214 -69.68274596 92.67776779 -66.08398438 92.63525391 C-61.46450506 92.58037646 -56.84520016 92.51655176 -52.2258749 92.45007896 C-48.68040792 92.40008031 -45.13489198 92.35492473 -41.58934212 92.31123734 C-39.88562072 92.2896332 -38.18191826 92.26648013 -36.47823906 92.2417717 C-34.10091909 92.20799609 -31.72361275 92.18075555 -29.34619141 92.15527344 C-28.28403664 92.13821098 -28.28403664 92.13821098 -27.20042419 92.12080383 C-22.32689264 92.07861911 -22.32689264 92.07861911 -20.09838867 93.19287109 C-20.17034958 92.58647293 -20.24231049 91.98007477 -20.31645203 91.3553009 C-21.21112433 82.90486157 -21.20633509 74.50148845 -21.11791992 66.01708984 C-21.11096289 65.26238718 -21.10400585 64.50768452 -21.096838 63.73011208 C-21.05973885 59.74844845 -21.0158814 55.76692751 -20.96630859 51.78540039 C-20.91666087 47.68905418 -20.89067078 43.59290529 -20.86987782 39.49632549 C-20.84949097 36.3261983 -20.81161811 33.15645059 -20.76901817 29.98655128 C-20.75174249 28.47601149 -20.7409979 26.96538163 -20.73707008 25.45474815 C-20.72996367 23.34422164 -20.69800224 21.23541339 -20.66015625 19.12524414 C-20.64230827 17.3296833 -20.64230827 17.3296833 -20.62409973 15.49784851 C-19.56533589 8.84173859 -15.24183982 5.02310068 -10.09838867 1.19287109 C-6.5675865 0.01593704 -3.72755073 0.03683063 0 0 Z " fill="#39AA81" transform="translate(482.098388671875,332.80712890625)"/>
<path d="M0 0 C0.94617188 0.46277344 1.89234375 0.92554688 2.8671875 1.40234375 C19.76778061 10.37941204 32.96144297 26.62825983 44.79296875 41.31640625 C48.98258561 46.41068374 53.44993712 51.22977278 58 56 C58.66741211 56.70141113 59.33482422 57.40282227 60.02246094 58.12548828 C69.31964407 67.83131601 78.5081047 76.94451079 90 84 C90.64179199 84.39509766 91.28358398 84.79019531 91.94482422 85.19726562 C108.59410057 95.29066304 125.55955555 101.61864353 145.25 101.4375 C146.42731689 101.42920166 147.60463379 101.42090332 148.81762695 101.41235352 C184.48479677 100.72527086 212.69974484 78.49394566 239.6328125 57.41015625 C292.19583196 16.29960925 292.19583196 16.29960925 321 19 C335.27694246 21.44615717 349.92340231 27.57310835 361 37 C358.37735159 42.5448534 355.49876154 47.41983743 351.8125 52.3125 C351.33055176 52.95985107 350.84860352 53.60720215 350.35205078 54.27416992 C335.74688566 73.75976196 319.21621588 92.26966319 299.59228516 106.80908203 C298.10851384 107.91883923 296.65257242 109.06553897 295.19921875 110.21484375 C250.98512936 144.79814139 195.47741852 161.52546928 139.8125 161.3125 C138.32589874 161.30976578 138.32589874 161.30976578 136.80926514 161.30697632 C122.33632167 161.26217432 108.23694494 160.80705144 94 158 C93.08847168 157.83371094 92.17694336 157.66742187 91.23779297 157.49609375 C32.84022179 146.7535666 -21.84110543 114.54448707 -60 69 C-60.45358887 68.46552246 -60.90717773 67.93104492 -61.37451172 67.38037109 C-69.62688163 57.62469314 -76.96526417 47.48366079 -83.87768555 36.73901367 C-84.9034712 35.14957029 -85.95066813 33.5739978 -87 32 C-87 31.01 -87 30.02 -87 29 C-85.08947801 27.46950429 -83.24240254 26.17101022 -81.18359375 24.8671875 C-80.58015137 24.47368103 -79.97670898 24.08017456 -79.35498047 23.67474365 C-77.38930345 22.39725501 -75.41401907 21.13563681 -73.4375 19.875 C-72.09153947 19.00752412 -70.74591734 18.13952298 -69.40063477 17.27099609 C-65.6109722 14.83058937 -61.80724588 12.41284763 -58 10 C-57.12472656 9.44248047 -56.24945313 8.88496094 -55.34765625 8.31054688 C-51.29750761 5.74400884 -47.20529232 3.30804604 -43 1 C-42.05898438 0.45988281 -41.11796875 -0.08023438 -40.1484375 -0.63671875 C-28.20222581 -6.64273427 -11.78247918 -6.18672496 0 0 Z " fill="#96DDDD" transform="translate(371,627)"/>
<path d="M0 0 C0.99 0.33 1.98 0.66 3 1 C3.66 1.66 4.32 2.32 5 3 C7.44619027 4.24352871 9.89941077 5.44321612 12.375 6.625 C49.30684737 24.72569086 76.58626953 56.2834441 92 94 C92.66 94 93.32 94 94 94 C94.0825 95.010625 94.165 96.02125 94.25 97.0625 C94.66922394 100.68072504 95.56343963 104.03630438 96.60473633 107.5234375 C98.49822842 113.94560422 99.87384652 118.67753765 97 125 C94.4638302 129.05969626 91.75885403 131.86693952 87 133 C82.02016025 133.56375544 78.23400811 132.89170474 73.8671875 130.546875 C70.2744235 127.5704429 68.56326554 123.31401165 67 119 C67 118.34 67 117.68 67 117 C66.34 116.67 65.68 116.34 65 116 C64.6088062 113.93734178 64.49325481 111.90556733 64.34375 109.8125 C64.2303125 109.214375 64.116875 108.61625 64 108 C63.34 107.67 62.68 107.34 62 107 C61.31875294 105.00491933 60.65572791 103.00361307 60 101 C58.97983036 98.88510986 57.90585675 96.8081098 56.8046875 94.734375 C56 93 56 93 56 91 C55.34 90.67 54.68 90.34 54 90 C53.608125 89.195625 53.21625 88.39125 52.8125 87.5625 C43.84546773 69.93764346 28.64135474 54.53148537 12 44 C11.08605469 43.42121094 10.17210937 42.84242188 9.23046875 42.24609375 C4.91113617 39.21554267 4.91113617 39.21554267 0 38 C0 37.34 0 36.68 0 36 C-0.84949219 35.72929687 -1.69898438 35.45859375 -2.57421875 35.1796875 C-7.33192262 33.54134477 -11.90598003 31.52027203 -16.515625 29.51171875 C-18.57882523 28.61658591 -20.64931474 27.73749133 -22.734375 26.89453125 C-27.43638628 24.96165748 -30.69584479 23.02693916 -34 19 C-35.59832473 14.20502582 -36.00612612 9.51097855 -34.09375 4.73828125 C-31.07295762 -0.49969528 -27.90802192 -2.71100958 -22.140625 -4.61328125 C-14.96396969 -5.9097938 -6.68186038 -2.43609493 0 0 Z " fill="#2B8DA2" transform="translate(730,224)"/>
<path d="M0 0 C12.91409626 4.71021385 24.28444065 11.4608138 34.921875 20.1171875 C35.82550781 20.84292969 36.72914063 21.56867188 37.66015625 22.31640625 C54.04325902 36.2811639 63.73029617 53.97955042 70.484375 74.1171875 C70.88064087 75.26453369 70.88064087 75.26453369 71.28491211 76.43505859 C72.98629688 81.8646079 73.29484415 86.55662741 71.921875 92.1171875 C69.9761098 95.8055209 67.13200067 98.36494722 63.609375 100.5546875 C58.12732827 101.70209263 53.68304209 102.01438583 48.609375 99.4296875 C42.98817133 94.59283783 40.83478628 89.8432789 38.671875 82.9296875 C38.40375 82.11048828 38.135625 81.29128906 37.859375 80.44726562 C35.921875 74.44200415 35.921875 74.44200415 35.921875 72.1171875 C34.931875 71.6221875 34.931875 71.6221875 33.921875 71.1171875 C33.921875 70.1271875 33.921875 69.1371875 33.921875 68.1171875 C32.931875 67.6221875 32.931875 67.6221875 31.921875 67.1171875 C31.16840261 65.80883233 30.46832177 64.46947191 29.796875 63.1171875 C26.40731178 56.8121964 21.90728366 51.10745994 15.921875 47.1171875 C15.921875 46.4571875 15.921875 45.7971875 15.921875 45.1171875 C15.10976563 44.73626953 15.10976563 44.73626953 14.28125 44.34765625 C11.45722483 42.87486166 8.8474429 41.15794139 6.171875 39.4296875 C0.45757316 35.81204184 -5.44154509 33.0217222 -11.69628906 30.46411133 C-15.17045451 29.03047388 -18.30863024 27.69708359 -21.078125 25.1171875 C-21.408125 24.1271875 -21.738125 23.1371875 -22.078125 22.1171875 C-22.449375 21.2096875 -22.820625 20.3021875 -23.203125 19.3671875 C-24.5938636 14.20158698 -23.87684775 10.62588604 -21.390625 5.9296875 C-15.2553385 -1.53214743 -9.01726741 -2.5861706 0 0 Z " fill="#2B8EA2" transform="translate(702.078125,275.8828125)"/>
<path d="M0 0 C6.72958311 3.94034801 10.99832184 9.6869179 13.5625 17 C15.41932647 24.43883896 14.60647563 31.47292042 10.859375 38.1796875 C6.59693916 44.36792267 1.47694167 48.63989846 -5.8125 50.75 C-14.00781609 51.72563287 -20.95868726 51.19478866 -27.8671875 46.36328125 C-34.41900308 40.89627448 -38.0901642 35.66476716 -39.375 27.1875 C-39.84652426 19.70061475 -37.64170547 12.59580704 -33.03125 6.6640625 C-24.22054729 -2.18982993 -11.67698986 -5.22769854 0 0 Z " fill="#2B8CA0" transform="translate(700.4375,336.9375)"/>
<path d="M0 0 C0.99 0.33 1.98 0.66 3 1 C3.66 1.66 4.32 2.32 5 3 C7.44619027 4.24352871 9.89941077 5.44321612 12.375 6.625 C49.30684737 24.72569086 76.58626953 56.2834441 92 94 C92.66 94 93.32 94 94 94 C94.0825 95.010625 94.165 96.02125 94.25 97.0625 C94.66922394 100.68072504 95.56343963 104.03630438 96.60473633 107.5234375 C98.49822842 113.94560422 99.87384652 118.67753765 97 125 C94.4638302 129.05969626 91.75885403 131.86693952 87 133 C81.14045744 133.66334444 76.70055289 132.48980441 72 129 C70.03004742 126.68019245 69.18640806 124.8886457 68 122 C68.41015625 119.78125 68.41015625 119.78125 69 118 C69.21914063 118.53109375 69.43828125 119.0621875 69.6640625 119.609375 C71.91011144 124.61276857 73.80975183 127.64969894 79 130 C83.88841473 130.84252749 87.10064894 130.48179521 91.5 128.125 C94.0584054 125.95035541 94.81027933 125.14910358 95.34375 121.91796875 C96.4680115 102.27149909 84.59169426 80.1744403 73.79345703 64.28735352 C71 60.1773334 71 60.1773334 71 58 C70.34 58 69.68 58 69 58 C67.90426965 56.5390262 66.87657341 55.02706259 65.875 53.5 C57.08132086 41.12489517 45.55666778 30.46998326 33 22 C31.91460938 21.25492188 30.82921875 20.50984375 29.7109375 19.7421875 C21.20059454 14.01610003 12.30167278 9.30304657 3 5 C2.35353516 4.69368652 1.70707031 4.38737305 1.04101562 4.07177734 C-7.29039093 0.17353833 -15.68871481 -2.99712802 -25 -1 C-28.37720615 1.20336242 -30.67052748 3.15037351 -32 7 C-32.3882314 9.41660953 -32.3882314 9.41660953 -32.375 11.9375 C-32.40335938 12.77152344 -32.43171875 13.60554688 -32.4609375 14.46484375 C-31.83521438 17.90632093 -30.3647945 19.4459819 -28 22 C-25.47855661 23.43343547 -25.47855661 23.43343547 -22.6328125 24.39453125 C-21.06635986 24.98584839 -21.06635986 24.98584839 -19.46826172 25.58911133 C-18.36498535 25.99282959 -17.26170898 26.39654785 -16.125 26.8125 C-3.72324838 31.55351045 7.39225673 36.91790989 18 45 C17.01 45.33 16.02 45.66 15 46 C12.70432312 44.76296647 10.59923469 43.50127831 8.4375 42.0625 C4.52396733 39.15029466 4.52396733 39.15029466 0 38 C0 37.34 0 36.68 0 36 C-0.84949219 35.72929687 -1.69898438 35.45859375 -2.57421875 35.1796875 C-7.33192262 33.54134477 -11.90598003 31.52027203 -16.515625 29.51171875 C-18.57882523 28.61658591 -20.64931474 27.73749133 -22.734375 26.89453125 C-27.43638628 24.96165748 -30.69584479 23.02693916 -34 19 C-35.59832473 14.20502582 -36.00612612 9.51097855 -34.09375 4.73828125 C-31.07295762 -0.49969528 -27.90802192 -2.71100958 -22.140625 -4.61328125 C-14.96396969 -5.9097938 -6.68186038 -2.43609493 0 0 Z " fill="#23707D" transform="translate(730,224)"/>
<path d="M0 0 C0.33 0 0.66 0 1 0 C1 26.07 1 52.14 1 79 C-2.00227381 80.50113691 -5.09106224 80.14425665 -8.38378906 80.1418457 C-9.14497543 80.14532013 -9.9061618 80.14879456 -10.69041443 80.15237427 C-12.34645098 80.15973508 -14.00249742 80.16507873 -15.65854645 80.16866493 C-18.28162146 80.17582491 -20.9045088 80.19148876 -23.52752686 80.21000671 C-30.98658646 80.26249217 -38.44554495 80.31043774 -45.90478516 80.32592773 C-50.46548685 80.33602025 -55.02571901 80.36537926 -59.58623505 80.40724754 C-61.32287796 80.41954704 -63.05958724 80.42468071 -64.79627228 80.42244911 C-67.23090012 80.42009098 -69.66418654 80.44230056 -72.09863281 80.4699707 C-72.81262741 80.46336929 -73.52662201 80.45676788 -74.26225281 80.44996643 C-79.29432867 80.54359489 -82.21128439 81.70608895 -86 85 C-88.93376158 89.43778657 -89.38475473 92.99489603 -89.41992188 98.25537109 C-89.42839142 98.95540756 -89.43686096 99.65544403 -89.44558716 100.37669373 C-89.46886052 102.6757965 -89.46998163 104.97422616 -89.46875 107.2734375 C-89.47585789 108.88237776 -89.48355781 110.4913155 -89.49182129 112.10025024 C-89.50524421 115.46762136 -89.50684499 118.83475811 -89.50097656 122.20214844 C-89.49508509 126.5018047 -89.52565815 130.80032998 -89.56609344 135.09976768 C-89.59203754 138.42168152 -89.59484179 141.74332552 -89.59120178 145.06532669 C-89.59288705 146.64966293 -89.60247212 148.23401244 -89.62034607 149.81824875 C-89.88404928 160.71610786 -89.88404928 160.71610786 -85.65881348 170.53848267 C-80.92656565 174.70788587 -76.16585814 175.44457791 -70.06689453 175.43237305 C-68.90978218 175.44766052 -68.90978218 175.44766052 -67.72929382 175.46325684 C-65.19705852 175.49328459 -62.66520214 175.50263692 -60.1328125 175.51171875 C-58.37017571 175.52857305 -56.60755088 175.54672431 -54.84494019 175.56611633 C-50.21886941 175.61354098 -45.59284716 175.64339901 -40.96661377 175.66955566 C-36.24066589 175.69939927 -31.51488506 175.74591654 -26.7890625 175.79101562 C-17.52612918 175.87696297 -8.26316141 175.94434632 1 176 C1 176.33 1 176.66 1 177 C-9.45738765 177.09275265 -19.91467715 177.1637918 -30.37239265 177.20724869 C-35.22855299 177.22810775 -40.08443152 177.2563947 -44.94042969 177.30175781 C-49.62831256 177.34527551 -54.31592468 177.36914976 -59.00399399 177.37950897 C-60.79095598 177.38688971 -62.57790344 177.40130271 -64.36474991 177.42292023 C-66.87125718 177.45203345 -69.37665115 177.45595277 -71.88330078 177.45410156 C-72.61913895 177.46848267 -73.35497711 177.48286377 -74.1131134 177.49768066 C-79.21909925 177.45697859 -82.05409712 176.18264145 -86 173 C-90.91829118 167.67185122 -92.24582567 163.23095258 -92.29052734 156.04174805 C-92.29724457 155.36136475 -92.30396179 154.68098145 -92.31088257 153.97998047 C-92.32981148 151.74048468 -92.3337843 149.50128947 -92.3359375 147.26171875 C-92.34236963 145.6961912 -92.3490983 144.13066484 -92.35610962 142.56513977 C-92.36807007 139.28599259 -92.37179178 136.00695065 -92.37060547 132.7277832 C-92.3704025 128.54148882 -92.397687 124.35587496 -92.43214989 120.16974163 C-92.45447272 116.93621265 -92.45844135 113.70284594 -92.45738602 110.46924782 C-92.45973456 108.92678295 -92.46851576 107.38431309 -92.48405075 105.84192467 C-92.63949206 88.81303498 -92.63949206 88.81303498 -86.5171814 82.4617157 C-81.73599529 78.22674106 -77.73799929 77.84226189 -71.62280273 77.77880859 C-70.50042709 77.76154976 -70.50042709 77.76154976 -69.3553772 77.74394226 C-66.88149106 77.7072521 -64.40757915 77.67760936 -61.93359375 77.6484375 C-60.21630999 77.62532306 -58.49902993 77.60193273 -56.78175354 77.57827759 C-53.18306677 77.52983105 -49.58435729 77.4848967 -45.9855957 77.44238281 C-41.36611638 77.38750537 -36.74681149 77.32368066 -32.12748623 77.25720787 C-28.58201925 77.20720922 -25.03650331 77.16205364 -21.49095345 77.11836624 C-19.78723205 77.09676211 -18.08352959 77.07360903 -16.37985039 77.0489006 C-14.00253041 77.015125 -11.62522408 76.98788445 -9.24780273 76.96240234 C-8.18564796 76.94533989 -8.18564796 76.94533989 -7.10203552 76.92793274 C-2.22850397 76.88574802 -2.22850397 76.88574802 0 78 C-0.07359238 77.38843552 -0.14718475 76.77687103 -0.2230072 76.14677429 C-1.11048185 67.83961372 -1.03963476 59.60680099 -0.87890625 51.26953125 C-0.85454415 49.78310463 -0.8307039 48.29666937 -0.80735779 46.81022644 C-0.74512149 42.9353944 -0.67589042 39.06071915 -0.60510254 35.18603516 C-0.53386588 31.2171938 -0.46938241 27.24824302 -0.40429688 23.27929688 C-0.27606628 15.51941006 -0.14043123 7.75967664 0 0 Z " fill="#1F7F59" transform="translate(462,348)"/>
<path d="M0 0 C2.43727564 2.21514642 3.85216486 4.346437 5.3125 7.2890625 C5.95747437 8.56511353 5.95747437 8.56511353 6.61547852 9.86694336 C7.07237061 10.77710205 7.5292627 11.68726074 8 12.625 C13.07876552 22.52023143 18.7040898 31.83792096 25 41 C25.64799561 41.94528564 25.64799561 41.94528564 26.30908203 42.90966797 C31.83426364 50.91793612 37.7164969 58.56845066 44 66 C44.9129927 67.10006768 45.82574157 68.20033775 46.73828125 69.30078125 C57.10705531 81.70674518 68.22853319 93.0509568 81 103 C82.08986059 103.87857473 83.17833692 104.75886862 84.265625 105.640625 C102.82685618 120.60596315 123.38962161 132.94866121 145 143 C145.68368652 143.32033203 146.36737305 143.64066406 147.07177734 143.97070312 C161.87526521 150.80674113 177.40005797 155.37922909 193 160 C193 160.33 193 160.66 193 161 C185.53495695 160.58403538 178.93540127 159.03843552 171.875 156.625 C170.84238037 156.2755835 169.80976074 155.92616699 168.74584961 155.56616211 C133.20170163 143.17479701 100.17598789 123.47662347 71.98046875 98.62109375 C69.88652631 96.77963191 67.78692937 95.02420182 65.61328125 93.28515625 C64.75089844 92.53105469 63.88851562 91.77695312 63 91 C63 90.34 63 89.68 63 89 C62.34 89 61.68 89 61 89 C59.5546875 87.53125 59.5546875 87.53125 57.875 85.5 C55.44802762 82.63357583 52.97138415 79.96199481 50.25 77.375 C45.08237509 72.27720786 40.77345915 66.53095446 36.37158203 60.77734375 C35.09825484 59.12732205 33.80329587 57.49823471 32.49609375 55.875 C22.39886182 43.16837106 14.13817318 29.31977734 6.3125 15.125 C5.79510254 14.19179932 5.27770508 13.25859863 4.74462891 12.29711914 C4.26815918 11.41789795 3.79168945 10.53867676 3.30078125 9.6328125 C2.87966064 8.85824707 2.45854004 8.08368164 2.0246582 7.28564453 C0.93837101 4.86252785 0.42133928 2.6146716 0 0 Z " fill="#216C78" transform="translate(246,648)"/>
<path d="M0 0 C0.33 0 0.66 0 1 0 C1 18.48 1 36.96 1 56 C6.63320313 55.95359375 12.26640625 55.9071875 18.0703125 55.859375 C21.64324764 55.83893207 25.21611048 55.81967603 28.7890625 55.8046875 C34.457835 55.78079416 40.12634858 55.75255597 45.79492188 55.69824219 C50.36609608 55.65471827 54.93699255 55.63084896 59.508358 55.62049103 C61.25066372 55.61311139 62.99295457 55.59870053 64.73514175 55.57707977 C67.1793911 55.5479581 69.62249907 55.54404755 72.06689453 55.54589844 C72.78403122 55.53151733 73.50116791 55.51713623 74.24003601 55.50231934 C79.29108884 55.54359037 82.09637706 56.85935483 86 60 C90.84731226 65.38590251 92.25211584 68.88640774 92.22705078 76.15527344 C92.22734283 76.86786819 92.22763489 77.58046295 92.22793579 78.31465149 C92.22654577 80.66301781 92.21100022 83.01106431 92.1953125 85.359375 C92.1915812 86.99033434 92.18873478 88.62129592 92.18673706 90.2522583 C92.1791098 94.53979711 92.15946912 98.8271999 92.1373291 103.11468506 C92.11685112 107.49180257 92.10773117 111.86894212 92.09765625 116.24609375 C92.07622235 124.83079151 92.04209739 133.41537882 92 142 C91.34 142.33 90.68 142.66 90 143 C89.99453156 141.63269997 89.99453156 141.63269997 89.98895264 140.23777771 C89.95102388 131.63079718 89.89411563 123.02419369 89.81609726 114.41747952 C89.77665454 109.99306736 89.74445045 105.56885327 89.72900391 101.14428711 C89.71381603 96.87113195 89.67933318 92.59852143 89.63169098 88.32560921 C89.61689905 86.6986573 89.60896024 85.07162762 89.60811615 83.44460869 C89.60573801 81.15836987 89.57859374 78.87362597 89.54589844 76.58764648 C89.53701599 75.28858871 89.52813354 73.98953094 89.51898193 72.65110779 C88.85790291 68.00032783 87.77177916 65.80475526 85 62 C80.55179644 58.92036289 76.44354611 58.56106768 71.17456055 58.58349609 C70.41451218 58.57491074 69.65446381 58.56632538 68.87138367 58.55747986 C66.37639966 58.53252309 63.88181589 58.52805141 61.38671875 58.5234375 C59.64889823 58.50912199 57.91108905 58.49336398 56.17329407 58.47622681 C51.61170696 58.43445698 47.0501902 58.40940041 42.48846436 58.38873291 C35.16933898 58.35284781 27.8503866 58.29207481 20.53144264 58.23024368 C17.97153904 58.21110438 15.41168194 58.19941265 12.85173035 58.18881226 C11.29397477 58.1786068 9.73622018 58.16824945 8.1784668 58.15771484 C7.10396271 58.15615135 7.10396271 58.15615135 6.00775146 58.15455627 C1.11343136 58.11343136 1.11343136 58.11343136 0 57 C-0.09370624 55.22008076 -0.11744271 53.43643261 -0.11352539 51.65405273 C-0.11344986 50.5129454 -0.11337433 49.37183807 -0.11329651 48.19615173 C-0.10813522 46.9545076 -0.10297394 45.71286346 -0.09765625 44.43359375 C-0.0962413 43.16983414 -0.09482635 41.90607452 -0.09336853 40.60401917 C-0.08870582 37.23875111 -0.0797148 33.8735501 -0.06866455 30.50830078 C-0.05844846 27.0765033 -0.05387049 23.64469891 -0.04882812 20.21289062 C-0.0377738 13.47524176 -0.0210171 6.73762475 0 0 Z " fill="#1F8059" transform="translate(561,370)"/>
<path d="M0 0 C0.99 0.495 0.99 0.495 2 1 C-19.61592378 19.89309533 -47.19308733 33.29703623 -74 43 C-75.18078125 43.4434375 -76.3615625 43.886875 -77.578125 44.34375 C-85.94933752 47.32527775 -94.5172743 49.50349219 -103.125 51.6875 C-104.29289063 51.985354 -105.46078125 52.28320801 -106.6640625 52.59008789 C-116.73045106 55.08330448 -126.89348039 57.35398944 -137.3125 57.125 C-138.40175781 57.10695313 -139.49101563 57.08890625 -140.61328125 57.0703125 C-141.40089844 57.04710937 -142.18851563 57.02390625 -143 57 C-143 56.67 -143 56.34 -143 56 C-142.36312256 55.90501221 -141.72624512 55.81002441 -141.07006836 55.7121582 C-89.70613303 47.97289047 -41.63458459 32.05970596 0 0 Z " fill="#226C79" transform="translate(682,760)"/>
<path d="M0 0 C0.33 0 0.66 0 1 0 C1.14695312 1.17755859 1.14695312 1.17755859 1.296875 2.37890625 C2.69951353 12.77708338 2.69951353 12.77708338 9.17115784 20.65834045 C12.65546143 22.31087139 15.67263737 22.42893331 19.44897461 22.40405273 C20.54752022 22.41434761 20.54752022 22.41434761 21.66825867 22.42485046 C24.07981976 22.44309356 26.49072872 22.43928466 28.90234375 22.43359375 C30.58476472 22.43815685 32.26718382 22.44346281 33.94960022 22.44947815 C37.47258078 22.45840441 40.99533459 22.45599183 44.51831055 22.44604492 C49.02542392 22.4345573 53.53175357 22.45476556 58.038764 22.48396206 C61.51242517 22.50233861 64.98589904 22.50202871 68.45959663 22.49632454 C70.12092755 22.49617149 71.78227129 22.50220201 73.44355583 22.51461601 C75.77007591 22.52955195 78.09515482 22.5188315 80.42163086 22.50170898 C81.10286011 22.51137695 81.78408936 22.52104492 82.48596191 22.53100586 C88.30089295 22.44172402 91.72553031 20.12283838 95.875 16.25 C96.431875 15.63125 96.431875 15.63125 97 15 C96.7416116 18.48824341 95.73533264 19.24214247 93.0625 21.6875 C88.4485557 25.17149876 85.07533991 25.30968673 79.4375 25.5625 C78.046521 25.6251001 78.046521 25.6251001 76.62744141 25.68896484 C66.04641787 26.09420961 55.4624555 26.11075958 44.875 26.125 C43.98440887 26.1275882 43.09381775 26.13017639 42.17623901 26.13284302 C12.87979726 26.19985519 12.87979726 26.19985519 7 22 C3.04176121 18.05111875 0.09733783 14.90845428 -0.09765625 9.08203125 C-0.08605469 8.00308594 -0.07445312 6.92414062 -0.0625 5.8125 C-0.05347656 4.72582031 -0.04445313 3.63914062 -0.03515625 2.51953125 C-0.02355469 1.68808594 -0.01195312 0.85664062 0 0 Z " fill="#2A8F6A" transform="translate(462,594)"/>
<path d="M0 0 C4.53353153 3.68431093 8.36348764 7.42838446 12 12 C12.66 12.66 13.32 13.32 14 14 C14.845625 14.99 15.69125 15.98 16.5625 17 C17.09875 17.62390625 17.635 18.2478125 18.1875 18.890625 C19.44443858 20.35344145 20.69394676 21.8226627 21.9375 23.296875 C31.49888605 34.33465154 42.29530801 42.84194924 55 50 C55.72832031 50.42023437 56.45664062 50.84046875 57.20703125 51.2734375 C65.38770203 55.70532839 73.60888982 57.30591132 82.8515625 57.0390625 C88.25652294 56.97200344 93.62090466 57.51414623 99 58 C90.98678522 62.58339847 77.50069527 61.16394833 68.7421875 59.1953125 C44.51372001 51.73644246 24.78704621 32.08527886 9 13 C8.20335937 12.05769531 7.40671875 11.11539063 6.5859375 10.14453125 C0 2.26383514 0 2.26383514 0 0 Z " fill="#257783" transform="translate(431,639)"/>
<path d="M0 0 C0.33 0 0.66 0 1 0 C0.46553634 6.36963535 -1.09966179 11.6937762 -3.4375 17.625 C-3.96875488 18.98818359 -3.96875488 18.98818359 -4.51074219 20.37890625 C-14.04434967 44.48992048 -25.76488427 66.99213474 -41 88 C-41.75925781 89.05445313 -42.51851562 90.10890625 -43.30078125 91.1953125 C-47.33983457 96.69072075 -51.57402744 102.0105489 -55.9375 107.25 C-56.41058594 107.82387451 -56.88367188 108.39774902 -57.37109375 108.98901367 C-58.53527576 110.36576888 -59.76264553 111.68861578 -61 113 C-61.66 113 -62.32 113 -63 113 C-61.54562723 109.67358844 -59.70099367 107.47709549 -57.1875 104.875 C-46.23751082 92.88801345 -37.43268788 79.08416772 -29.24365234 65.11572266 C-28.09080312 63.15447583 -26.91666241 61.20768359 -25.73828125 59.26171875 C-14.7266773 40.74510916 -6.62281487 20.45143888 0 0 Z " fill="#226D7A" transform="translate(788,609)"/>
<path d="M0 0 C-4.67405133 1.98032175 -9.38081001 3.81537548 -14.203125 5.40234375 C-45.2316829 15.67270228 -72.15166336 31.29937586 -98 51 C-98.66 50.67 -99.32 50.34 -100 50 C-75.60505653 28.33127372 -44.59144218 12.59497531 -13.875 2.0625 C-12.96145752 1.74337646 -12.04791504 1.42425293 -11.10668945 1.09545898 C-10.24390381 0.80743408 -9.38111816 0.51940918 -8.4921875 0.22265625 C-7.72245605 -0.03765381 -6.95272461 -0.29796387 -6.15966797 -0.56616211 C-3.75527188 -1.04916141 -2.30357669 -0.77232953 0 0 Z " fill="#24737F" transform="translate(440,276)"/>
<path d="M0 0 C0 3.5212848 -0.61502747 4.16720282 -2.7109375 6.88671875 C-3.58153809 8.03430664 -3.58153809 8.03430664 -4.46972656 9.20507812 C-5.41283691 10.43387695 -5.41283691 10.43387695 -6.375 11.6875 C-21.66062688 32.05291918 -33.07925004 53.47227612 -41.98730469 77.32470703 C-43.59606584 81.57465994 -45.29468167 85.78803482 -47 90 C-48.09767916 86.70696251 -47.96651047 86.15703168 -46.8828125 83.03515625 C-46.61049805 82.2455249 -46.33818359 81.45589355 -46.05761719 80.64233398 C-45.59597168 79.36531616 -45.59597168 79.36531616 -45.125 78.0625 C-44.80692383 77.1744165 -44.48884766 76.28633301 -44.16113281 75.37133789 C-33.99886477 47.57699582 -19.23384 22.4880503 0 0 Z " fill="#23707C" transform="translate(307,359)"/>
<path d="M0 0 C0.68348007 -0.00029205 1.36696014 -0.00058411 2.07115173 -0.00088501 C4.31669071 0.00050161 6.56189247 0.01603091 8.80737305 0.03173828 C10.36964232 0.03547079 11.93191394 0.03831664 13.4941864 0.04031372 C17.59594239 0.04793143 21.6975556 0.06756382 25.79925537 0.08972168 C29.98879058 0.11022031 34.17834897 0.11932402 38.36791992 0.12939453 C46.58087589 0.15081156 54.79371606 0.1849249 63.0065918 0.22705078 C63.0065918 0.88705078 63.0065918 1.54705078 63.0065918 2.22705078 C61.73325233 2.23585014 61.73325233 2.23585014 60.43418884 2.24482727 C52.41588721 2.30284323 44.39786149 2.3749708 36.37982845 2.46276569 C32.25812185 2.50740425 28.13651261 2.54667446 24.01464844 2.57348633 C20.0333261 2.59958469 16.05237972 2.64003256 12.07129097 2.69023705 C10.55598201 2.70686177 9.04060809 2.71840334 7.52522087 2.72466469 C5.39483538 2.7343542 3.26540219 2.76246834 1.13525391 2.79467773 C-0.0749794 2.80578079 -1.28521271 2.81688385 -2.53211975 2.82832336 C-7.28386664 3.37570674 -11.53023407 4.54520447 -14.77075195 8.27001953 C-15.15360352 8.97771484 -15.53645508 9.68541016 -15.9309082 10.41455078 C-16.33180664 11.12998047 -16.73270508 11.84541016 -17.14575195 12.58251953 C-17.42547852 13.12521484 -17.70520508 13.66791016 -17.9934082 14.22705078 C-18.6887207 12.48486328 -18.6887207 12.48486328 -18.9934082 10.22705078 C-17.7355957 8.15673828 -17.7355957 8.15673828 -15.8684082 6.10205078 C-15.26770508 5.41884766 -14.66700195 4.73564453 -14.0480957 4.03173828 C-9.74487674 0.2521049 -5.58309529 -0.02011926 0 0 Z " fill="#248B65" transform="translate(481.993408203125,332.77294921875)"/>
<path d="M0 0 C0.99 0.33 1.98 0.66 3 1 C2.14019531 1.65484375 1.28039062 2.3096875 0.39453125 2.984375 C-7.10790073 8.75613476 -14.20367747 14.78900613 -21.09375 21.27734375 C-23.48016768 23.51300655 -25.89593536 25.6814579 -28.375 27.8125 C-35.76001163 34.24162286 -41.87965945 41.36492634 -48 49 C-49.58008637 50.96095409 -51.16334572 52.91935635 -52.75 54.875 C-53.44609375 55.73867188 -54.1421875 56.60234375 -54.859375 57.4921875 C-57.11649621 60.13647914 -59.5122435 62.57313264 -62 65 C-60.50903483 60.49341037 -57.99962027 57.09414349 -55.0625 53.4375 C-54.57813477 52.8276123 -54.09376953 52.21772461 -53.59472656 51.58935547 C-49.43997482 46.41938518 -45.03161883 41.51952798 -40.49609375 36.68359375 C-38.36940178 34.39715027 -36.32927439 32.07012916 -34.3125 29.6875 C-31.48524948 26.43147215 -28.43680731 23.62034259 -25.1484375 20.8359375 C-22.81504533 18.84194783 -20.56861914 16.76838659 -18.3125 14.6875 C-14.33406022 11.11061082 -10.25865666 7.69127012 -6.0625 4.375 C-5.50667236 3.92471436 -4.95084473 3.47442871 -4.37817383 3.01049805 C-2.78515625 1.7734375 -2.78515625 1.7734375 0 0 Z " fill="#24707D" transform="translate(334,292)"/>
<path d="M0 0 C4.81788168 0.62923601 8.66923041 2.62882633 12.9375 4.8125 C13.62779297 5.15603516 14.31808594 5.49957031 15.02929688 5.85351562 C26.36692082 11.5814337 26.36692082 11.5814337 27.84375 14.890625 C27.8953125 15.58671875 27.946875 16.2828125 28 17 C28.1134375 17.90234375 28.226875 18.8046875 28.34375 19.734375 C28.62772166 25.21502802 28.58940035 29.18471223 25.125 33.625 C21.64405507 36.97287057 18.38645613 38.46346935 13.609375 39.0859375 C8.90518611 38.93100912 5.15754343 37.06235171 1 35 C-0.70595812 34.2446129 -2.41417641 33.49430197 -4.125 32.75 C-5.41753112 32.16858462 -6.70954304 31.58600461 -8 31 C-8 30.34 -8 29.68 -8 29 C-3.75046461 29.61382178 -0.54445534 31.15444952 3.25 33.125 C8.15917319 35.42964579 11.74432811 36.83983132 17.125 35.76171875 C20.17331925 34.52333905 21.97775124 32.52781095 24 30 C24.495 29.505 24.495 29.505 25 29 C25.17880383 27.08885087 25.26803583 25.16898013 25.3125 23.25 C25.34988281 22.20328125 25.38726563 21.1565625 25.42578125 20.078125 C24.88003579 16.1327358 23.87571073 14.74870774 21 12 C18.44798406 10.40913292 15.79097581 9.13353123 13.0625 7.875 C11.65669454 7.20753233 10.25172603 6.53829864 8.84765625 5.8671875 C8.18781738 5.55233398 7.52797852 5.23748047 6.84814453 4.91308594 C4.47298143 3.73962358 2.20963005 2.46155569 0 1 C0 0.67 0 0.34 0 0 Z " fill="#247380" transform="translate(629,259)"/>
<path d="M0 0 C6.05739564 2.07336339 9.62853925 6.09399799 14.0625 10.5625 C14.90723877 11.41295898 15.75197754 12.26341797 16.62231445 13.13964844 C29.17023429 26.04334223 43.41828519 43.60528198 46 62 C42.27060157 59.51373438 42.32138698 58.19734687 41 54 C39.98141368 51.88417205 38.90592333 49.80823518 37.8046875 47.734375 C37 46 37 46 37 44 C36.01 43.505 36.01 43.505 35 43 C34.4121875 41.7934375 34.4121875 41.7934375 33.8125 40.5625 C26.3227636 25.84129397 13.81700897 11.21133931 0 2 C0 1.34 0 0.68 0 0 Z " fill="#23717E" transform="translate(749,271)"/>
<path d="M0 0 C5.44250504 0.4354004 8.80370384 1.45646102 13 5 C20.38591567 14.58172843 18.13959751 28.74191457 18.09765625 40.265625 C18.09578621 41.79547072 18.09436509 43.32531704 18.09336853 44.85516357 C18.0895894 48.84004431 18.07979966 52.82488735 18.06866455 56.80975342 C18.05835022 60.89269501 18.05384965 64.97564282 18.04882812 69.05859375 C18.03817224 77.03907961 18.02115269 85.01953509 18 93 C17.67 93 17.34 93 17 93 C16.98786972 92.03091454 16.98786972 92.03091454 16.97549438 91.04225159 C16.88789172 84.17717257 16.78836987 77.31233258 16.68261719 70.44750977 C16.64487015 67.90230395 16.60993487 65.35705452 16.578125 62.81176758 C16.41029643 49.53495425 16.11707105 36.27693058 15.2109375 23.02734375 C15.15161041 21.99944229 15.09228333 20.97154083 15.03115845 19.91249084 C14.57943776 14.09627303 13.83057154 10.47140194 10 6 C6.76018873 3.59090957 3.98322182 2.56903169 0 2 C0 1.34 0 0.68 0 0 Z " fill="#379D78" transform="translate(545,333)"/>
<path d="M0 0 C0 0.66 0 1.32 0 2 C-0.94101562 1.94199219 -1.88203125 1.88398438 -2.8515625 1.82421875 C-10.84325942 1.18401661 -10.84325942 1.18401661 -17.8125 4.375 C-20.89731283 8.0767754 -21.22213515 10.04429254 -21.375 14.8125 C-21.42398438 15.85019531 -21.47296875 16.88789063 -21.5234375 17.95703125 C-20.79777851 22.17560106 -19.36497232 23.38136128 -16 26 C-13.03572224 27.57603003 -9.9837502 28.86253804 -6.875 30.125 C-5.26551922 30.78772738 -3.65862253 31.45677377 -2.0546875 32.1328125 C-0.99483643 32.56424561 -0.99483643 32.56424561 0.08642578 33.00439453 C2.14172375 34.07373685 3.45656105 35.28728455 5 37 C1.24422589 36.38418839 -1.86885191 35.29719368 -5.3125 33.6875 C-6.26898437 33.24148438 -7.22546875 32.79546875 -8.2109375 32.3359375 C-11.83161374 30.60166401 -15.42181217 28.82048153 -19 27 C-19.70640625 26.71898437 -20.4128125 26.43796875 -21.140625 26.1484375 C-23 25 -23 25 -23.86328125 23.08203125 C-25.12840718 16.69039505 -25.4644759 11.76623225 -22.3125 5.8125 C-16.10497102 -1.7371974 -9.0946729 -2.5775225 0 0 Z " fill="#247381" transform="translate(703,276)"/>
<path d="M0 0 C0.99 0.33 1.98 0.66 3 1 C2.175 1.64324219 1.35 2.28648437 0.5 2.94921875 C-0.6669482 3.8616192 -1.83358856 4.77441345 -3 5.6875 C-3.62575928 6.17718262 -4.25151855 6.66686523 -4.89624023 7.17138672 C-8.98954617 10.38672433 -13.0313618 13.65719493 -17.0480957 16.9675293 C-24.45747435 23.06403537 -31.98578358 28.71883687 -40 34 C-41.53914062 35.02480469 -41.53914062 35.02480469 -43.109375 36.0703125 C-51.0738543 41.27461511 -51.0738543 41.27461511 -55 42 C-55 41.34 -55 40.68 -55 40 C-53.41789514 38.99179592 -51.77902597 38.0727849 -50.125 37.1875 C-38.09280585 30.35457747 -27.03385077 21.94101354 -16.57299805 12.91015625 C-12.91551365 9.75527609 -9.20072885 6.69931454 -5.375 3.75 C-3.93253906 2.62851562 -3.93253906 2.62851562 -2.4609375 1.484375 C-1.64882813 0.99453125 -0.83671875 0.5046875 0 0 Z " fill="#247481" transform="translate(606,647)"/>
<path d="M0 0 C5.43955526 1.52987492 8.97224227 5.242821 13 9 C13.57878906 9.50273437 14.15757812 10.00546875 14.75390625 10.5234375 C25.70167752 20.5313769 31.63424684 34.54522476 36.0625 48.375 C37.50393136 52.8581457 39.11432185 56.28984238 42 60 C38.54015639 58.56834058 36.98602054 57.16770276 35 54 C33.78800974 51.00528025 32.79653462 47.95101932 31.8125 44.875 C31.53986328 44.05128906 31.26722656 43.22757812 30.98632812 42.37890625 C29 36.29546523 29 36.29546523 29 34 C28.34 33.67 27.68 33.34 27 33 C27 32.01 27 31.02 27 30 C26.34 29.67 25.68 29.34 25 29 C24.24652761 27.69164483 23.54644677 26.35228441 22.875 25 C19.48543678 18.6950089 14.98540866 12.99027244 9 9 C9 8.34 9 7.68 9 7 C8.443125 6.773125 7.88625 6.54625 7.3125 6.3125 C4.36753316 4.64103234 2.31843456 2.44723648 0 0 Z " fill="#24727F" transform="translate(709,314)"/>
<path d="M0 0 C0.33 0 0.66 0 1 0 C0.67 22.44 0.34 44.88 0 68 C-0.33 68 -0.66 68 -1 68 C-2.02643303 62.06665398 -2.16109076 56.28741387 -2.16796875 50.2734375 C-2.17129715 49.24876373 -2.17462555 48.22408997 -2.17805481 47.16836548 C-2.18310198 45.00498908 -2.18546382 42.84160494 -2.18530273 40.67822266 C-2.18747909 37.40644116 -2.20563073 34.13500276 -2.22460938 30.86328125 C-2.25186337 20.40194174 -2.22751242 10.270536 0 0 Z " fill="#267580" transform="translate(250,487)"/>
<path d="M0 0 C0.66 0.33 1.32 0.66 2 1 C1.34515625 1.97195313 0.6903125 2.94390625 0.015625 3.9453125 C-11.82195132 21.74117945 -21.57030588 40.37328793 -30 60 C-31.11591546 56.71292118 -30.93842284 55.07969543 -29.515625 51.9375 C-29.16314697 51.15076904 -28.81066895 50.36403809 -28.44750977 49.5534668 C-28.05233154 48.71082275 -27.65715332 47.86817871 -27.25 47 C-26.84386475 46.11932861 -26.43772949 45.23865723 -26.01928711 44.33129883 C-9.8592888 9.8592888 -9.8592888 9.8592888 0 0 Z " fill="#24707D" transform="translate(270,358)"/>
<path d="M0 0 C2.00492529 2.35714189 2.80273133 4.70050661 3.4453125 7.69921875 C2.7853125 7.69921875 2.1253125 7.69921875 1.4453125 7.69921875 C0.59895833 5.97395833 -0.24739583 4.24869792 -1.09375 2.5234375 C-3.22289772 -0.1351507 -5.41481288 -0.99540638 -8.5546875 -2.30078125 C-11.24628346 -2.59220074 -13.70859249 -2.73860321 -16.39599609 -2.7331543 C-17.53847809 -2.74844177 -17.53847809 -2.74844177 -18.70404053 -2.76403809 C-21.20381121 -2.79406153 -23.70319803 -2.80341748 -26.203125 -2.8125 C-27.9433417 -2.82935463 -29.68354629 -2.84750592 -31.42373657 -2.86689758 C-35.99062311 -2.91431873 -40.5574605 -2.944179 -45.12451172 -2.97033691 C-49.79013775 -3.0001823 -54.45559463 -3.04669895 -59.12109375 -3.09179688 C-68.26553637 -3.17774022 -77.41001388 -3.24512533 -86.5546875 -3.30078125 C-86.5546875 -3.63078125 -86.5546875 -3.96078125 -86.5546875 -4.30078125 C-77.02727344 -4.45493563 -67.49979035 -4.60311353 -57.97216702 -4.74374485 C-53.54771792 -4.80923744 -49.12331947 -4.87675794 -44.69897461 -4.94897461 C-40.42614499 -5.01864251 -36.15326459 -5.08290288 -31.88029671 -5.14347649 C-30.25326671 -5.16747976 -28.62626383 -5.19340373 -26.99929619 -5.22131538 C-24.7136852 -5.26019247 -22.42807157 -5.2921269 -20.14233398 -5.32250977 C-18.19374733 -5.35248802 -18.19374733 -5.35248802 -16.20579529 -5.3830719 C-9.31400597 -5.22774101 -5.044071 -4.67085499 0 0 Z " fill="#2C976E" transform="translate(648.5546875,431.30078125)"/>
<path d="M0 0 C1.01126953 -0.00386719 2.02253906 -0.00773438 3.06445312 -0.01171875 C8.33866829 -0.00483784 13.36690276 0.20426125 18.5625 1.125 C17.44165039 2.62475586 17.44165039 2.62475586 15.5625 4.125 C12.81030273 4.34204102 12.81030273 4.34204102 9.49609375 4.12890625 C8.28759766 4.06509766 7.07910156 4.00128906 5.83398438 3.93554688 C4.56876953 3.85369141 3.30355469 3.77183594 2 3.6875 C-9.27948471 2.96747445 -9.27948471 2.96747445 -20.36694336 4.76538086 C-22.69900047 5.17041802 -24.20515375 4.84935363 -26.4375 4.125 C-25.06458132 3.63990207 -23.68903297 3.16224487 -22.3125 2.6875 C-21.54679688 2.42066406 -20.78109375 2.15382813 -19.9921875 1.87890625 C-13.3490477 -0.08153103 -6.86876411 -0.02616672 0 0 Z " fill="#298090" transform="translate(684.4375,614.875)"/>
<path d="M0 0 C-0.59200195 0.25990723 -1.18400391 0.51981445 -1.79394531 0.78759766 C-20.36654594 9.04327967 -36.0676385 19.49014578 -52 32 C-52 29 -52 29 -50.12109375 27.08984375 C-11.78476672 -3.6573414 -11.78476672 -3.6573414 0 0 Z " fill="#24727F" transform="translate(325,598)"/>
<path d="M0 0 C15.09177826 2.07035225 31.05689945 20.3798685 40.875 31.125 C41.79925781 32.11886719 41.79925781 32.11886719 42.7421875 33.1328125 C43.15726562 33.74898437 43.57234375 34.36515625 44 35 C43.67 35.99 43.34 36.98 43 38 C42.2265625 37.154375 41.453125 36.30875 40.65625 35.4375 C37.45332862 31.94354468 34.22955519 28.4693268 31 25 C30.30003906 24.24332031 29.60007812 23.48664062 28.87890625 22.70703125 C20.97892623 14.46726715 11.66625162 7.63463724 1.73046875 2.05859375 C1.15941406 1.70925781 0.58835937 1.35992188 0 1 C0 0.67 0 0.34 0 0 Z " fill="#247581" transform="translate(386,601)"/>
<path d="M0 0 C2.84293072 2.84293072 3.11714826 6.19583892 4 10 C7.24760125 23.20466098 11.76390771 37.10411135 18.13793945 49.15063477 C19 51 19 51 19 54 C18.34 54 17.68 54 17 54 C1.25756187 15.09074244 1.25756187 15.09074244 0.4375 5.25 C0.35371094 4.26515625 0.26992187 3.2803125 0.18359375 2.265625 C0.12300781 1.51796875 0.06242188 0.7703125 0 0 Z " fill="#226C78" transform="translate(227,593)"/>
<path d="M0 0 C17.82 0 35.64 0 54 0 C50.85555852 2.09629432 49.88810242 2.28692013 46.265625 2.44921875 C44.83138184 2.51532349 44.83138184 2.51532349 43.36816406 2.58276367 C41.82467285 2.63460815 41.82467285 2.63460815 40.25 2.6875 C38.66396973 2.74611206 38.66396973 2.74611206 37.04589844 2.8059082 C29.43564619 3.0375981 21.85746373 2.9839979 14.25 2.6875 C13.28094727 2.65293701 12.31189453 2.61837402 11.31347656 2.58276367 C10.41081055 2.53869385 9.50814453 2.49462402 8.578125 2.44921875 C7.78825195 2.41143311 6.99837891 2.37364746 6.18457031 2.3347168 C4 2 4 2 0 0 Z " fill="#226B77" transform="translate(484,817)"/>
<path d="M0 0 C2.89858664 0.89923848 4.60938729 1.45930198 6.41503906 3.95874023 C6.77823242 4.75481689 7.14142578 5.55089355 7.515625 6.37109375 C8.1334082 7.7166333 8.1334082 7.7166333 8.76367188 9.08935547 C10.86780567 14.04304487 12.85918128 19.02349995 14.75 24.0625 C15.14832031 25.08666016 15.54664063 26.11082031 15.95703125 27.16601562 C18.23071918 33.1970692 19.5980226 38.5616619 20 45 C18.18356497 42.27534746 17.28785388 40.23206821 16.265625 37.16796875 C15.94174805 36.21067871 15.61787109 35.25338867 15.28417969 34.26708984 C14.77226074 32.74269287 14.77226074 32.74269287 14.25 31.1875 C9.03438251 14.59548564 9.03438251 14.59548564 0 0 Z " fill="#23717D" transform="translate(770,400)"/>
<path d="M0 0 C0 4.1987109 -2.21006603 6.12203413 -5 9 C-6.91514169 10.73611758 -8.87076027 12.41520266 -10.83984375 14.08984375 C-13.10651996 16.09419215 -15.20363264 18.2057715 -17.3125 20.375 C-30.08602255 33.28134947 -30.08602255 33.28134947 -38 36 C-34.48494047 32.43995799 -30.88355771 28.99740679 -27.1875 25.625 C-26.65761475 25.13950684 -26.12772949 24.65401367 -25.58178711 24.15380859 C-22.78095583 21.59536104 -19.95163972 19.08384231 -17.0625 16.625 C-11.0545264 11.43339648 -5.57257092 5.64902388 0 0 Z " fill="#1E6672" transform="translate(723,723)"/>
<path d="M0 0 C2.4249978 2.17975887 3.66165266 4.0862287 4.8671875 7.10546875 C5.35638672 8.32266602 5.35638672 8.32266602 5.85546875 9.56445312 C6.19191406 10.43005859 6.52835938 11.29566406 6.875 12.1875 C7.22433594 13.07501953 7.57367187 13.96253906 7.93359375 14.87695312 C16 35.66804082 16 35.66804082 16 43 C15.01 42.67 14.02 42.34 13 42 C12.89478027 41.39486572 12.78956055 40.78973145 12.68115234 40.16625977 C11.51260518 33.86059484 9.79790506 27.96450176 7.625 21.9375 C7.33367188 21.10412109 7.04234375 20.27074219 6.7421875 19.41210938 C4.98172115 14.45114609 3.01134743 9.66566359 0.74755859 4.91235352 C0 3 0 3 0 0 Z " fill="#26737F" transform="translate(749,419)"/>
<path d="M0 0 C3.25001714 0.25878357 4.19571199 1.1960117 6.55078125 3.5546875 C7.48310961 4.651574 8.40309874 5.75903158 9.3125 6.875 C9.7967041 7.45999268 10.2809082 8.04498535 10.77978516 8.64770508 C17.10616045 16.42031968 23.72849828 25.44108092 27 35 C26.625 37.28515625 26.625 37.28515625 26 39 C25.27296875 37.45892578 25.27296875 37.45892578 24.53125 35.88671875 C18.74011414 23.82562359 11.94709198 13.81806602 2.78515625 3.99609375 C1 2 1 2 0 0 Z " fill="#247582" transform="translate(741,302)"/>
<path d="M0 0 C6.37638749 10.71099211 4.24687919 27.95465682 4.125 40 C4.11493498 41.75780731 4.10581545 43.51562031 4.09765625 45.2734375 C4.07595647 49.51576925 4.04162768 53.75781894 4 58 C3.67 58 3.34 58 3 58 C2.98018066 57.14470703 2.96036133 56.28941406 2.93994141 55.40820312 C2.52330337 34.7428091 2.52330337 34.7428091 0.41015625 14.203125 C-0.19710096 9.46073533 -0.1819412 4.77090255 0 0 Z " fill="#1E6772" transform="translate(769,482)"/>
<path d="M0 0 C4.93561128 0.54337005 8.81679804 2.1433815 13.125 4.5 C13.7744458 4.85022217 14.4238916 5.20044434 15.09301758 5.5612793 C21.52709692 9.12720198 27.24613643 13.4203943 33 18 C33.76957031 18.54011719 34.53914062 19.08023437 35.33203125 19.63671875 C36.15767578 20.31154297 36.15767578 20.31154297 37 21 C37 21.66 37 22.32 37 23 C33.84206057 21.60159373 31.19340931 19.73259201 28.43115234 17.67382812 C20.68979322 11.90737188 12.61722252 7.31919753 4 3 C3.19820312 2.5978125 2.39640625 2.195625 1.5703125 1.78125 C1.05210937 1.5234375 0.53390625 1.265625 0 1 C0 0.67 0 0.34 0 0 Z " fill="#247685" transform="translate(704,278)"/>
<path d="M0 0 C-1.63582031 0.87398438 -1.63582031 0.87398438 -3.3046875 1.765625 C-12.64275271 6.8209595 -21.59712239 12.19934385 -30.33544922 18.23925781 C-31.04975098 18.73006836 -31.76405273 19.22087891 -32.5 19.7265625 C-33.1290625 20.16564941 -33.758125 20.60473633 -34.40625 21.05712891 C-36 22 -36 22 -38 22 C-38 21.34 -38 20.68 -38 20 C-35.554454 18.23700313 -33.11058793 16.6036261 -30.5625 15 C-29.80493408 14.51885742 -29.04736816 14.03771484 -28.2668457 13.54199219 C-25.85122525 12.01707108 -23.42672597 10.50717534 -21 9 C-19.80745605 8.25266602 -19.80745605 8.25266602 -18.59082031 7.49023438 C-16.29907372 6.06085091 -13.99613994 4.6518997 -11.6875 3.25 C-10.97730713 2.80785156 -10.26711426 2.36570312 -9.53540039 1.91015625 C-4.03099965 -1.3729608 -4.03099965 -1.3729608 0 0 Z " fill="#24717E" transform="translate(376,269)"/>
<path d="M0 0 C7.56340049 0.51424794 14.11033989 2.45356653 21.25 4.9375 C22.3121875 5.29779297 23.374375 5.65808594 24.46875 6.02929688 C29.02669133 7.58392134 33.53941642 9.18240793 38 11 C38 11.66 38 12.32 38 13 C28.92598393 10.72150257 20.10574245 7.76428781 11.25292969 4.76171875 C7.506245 3.4949593 3.75306571 2.24770354 0 1 C0 0.67 0 0.34 0 0 Z " fill="#247381" transform="translate(590,246)"/>
<path d="M0 0 C10.36228441 0.5978241 19.00651901 5.13625945 27.625 10.625 C28.22908691 11.00914062 28.83317383 11.39328125 29.45556641 11.7890625 C32.3352349 13.6852489 34.06069411 15.09104117 36 18 C32.02918511 16.57513564 28.81812362 14.6449999 25.3125 12.3125 C17.4220541 7.23294476 8.79327825 4.15807973 0 1 C0 0.67 0 0.34 0 0 Z " fill="#22717F" transform="translate(708,619)"/>
<path d="M0 0 C-0.49814209 0.26627197 -0.99628418 0.53254395 -1.50952148 0.80688477 C-14.05578075 7.44486945 -14.05578075 7.44486945 -25.46875 15.8203125 C-27 17 -27 17 -29 17 C-27.59891427 12.79674281 -24.57071745 11.42049182 -21 9.125 C-20.32026123 8.68244873 -19.64052246 8.23989746 -18.94018555 7.78393555 C-16.96806317 6.50959419 -14.98685714 5.25121535 -13 4 C-12.05769531 3.40574219 -11.11539063 2.81148437 -10.14453125 2.19921875 C-4.34995742 -1.24646585 -4.34995742 -1.24646585 0 0 Z " fill="#23727F" transform="translate(639,629)"/>
<path d="M0 0 C1.27230469 0.00902344 2.54460938 0.01804687 3.85546875 0.02734375 C5.31919922 0.04474609 5.31919922 0.04474609 6.8125 0.0625 C7.1425 0.7225 7.4725 1.3825 7.8125 2.0625 C6.23662109 2.06636719 6.23662109 2.06636719 4.62890625 2.0703125 C-4.27836353 2.25490813 -10.24466561 2.99506647 -17.1875 9.0625 C-18.5152417 10.06991241 -19.84708318 11.072015 -21.1875 12.0625 C-19.86978785 7.87431221 -18.46023352 6.12758824 -14.75 3.8125 C-13.96753906 3.31234375 -13.18507813 2.8121875 -12.37890625 2.296875 C-8.16450951 -0.0770098 -4.76301254 -0.04369736 0 0 Z " fill="#257683" transform="translate(688.1875,334.9375)"/>
<path d="M0 0 C4.96779714 3.9685276 5.80322275 11.07402231 7 17 C7.16779056 21.65296136 6.63305754 25.05041369 4 29 C3.34 29 2.68 29 2 29 C2.350625 28.030625 2.70125 27.06125 3.0625 26.0625 C5.08408976 18.87141644 2.90668132 12.05363268 0.62109375 5.1640625 C0 3 0 3 0 0 Z " fill="#257684" transform="translate(768,342)"/>
<path d="M0 0 C6.18134869 5.10448822 11.79822878 10.68294942 17.4375 16.375 C18.35982422 17.30183594 19.28214844 18.22867188 20.23242188 19.18359375 C22.49058625 21.45345846 24.74636942 23.72563538 27 26 C22.07123959 26 19.40186491 22.31981622 16 19 C14.24476042 17.07740942 12.553722 15.11459644 10.875 13.125 C7.99980635 9.8664472 4.85886916 6.88813172 1.72265625 3.8828125 C0 2 0 2 0 0 Z " fill="#A6E6E4" transform="translate(420,675)"/>
<path d="M0 0 C0.33 0 0.66 0 1 0 C1.14695312 1.17755859 1.14695312 1.17755859 1.296875 2.37890625 C2.20945371 8.79055842 3.00813782 13.82136798 7 19 C9.27411155 20.63833843 11.4559786 21.77691279 14 23 C12.2578125 23.6953125 12.2578125 23.6953125 10 24 C7.9296875 22.7421875 7.9296875 22.7421875 5.875 20.875 C5.19179688 20.27429688 4.50859375 19.67359375 3.8046875 19.0546875 C0.14759443 14.89098414 -0.24403565 11.10362207 -0.125 5.6875 C-0.10695313 4.61886719 -0.08890625 3.55023437 -0.0703125 2.44921875 C-0.04710937 1.64097656 -0.02390625 0.83273437 0 0 Z " fill="#248260" transform="translate(462,594)"/>
<path d="M0 0 C4.79118295 0.42275144 7.78668721 2.58480369 11 6 C13.94427488 9.74585756 15.8835786 12.69608033 16.3125 17.5 C16.209375 18.325 16.10625 19.15 16 20 C15.72414063 19.43023437 15.44828125 18.86046875 15.1640625 18.2734375 C11.68113033 11.47120084 7.91579348 6.39266976 1.5390625 2.09375 C1.03117188 1.7328125 0.52328125 1.371875 0 1 C0 0.67 0 0.34 0 0 Z " fill="#22707E" transform="translate(697,337)"/>
<path d="M0 0 C0.99386719 0.00902344 1.98773438 0.01804687 3.01171875 0.02734375 C4.15060547 0.04474609 4.15060547 0.04474609 5.3125 0.0625 C5.3125 0.3925 5.3125 0.7225 5.3125 1.0625 C3.64960938 1.40861328 3.64960938 1.40861328 1.953125 1.76171875 C0.48935477 2.09012874 -0.97417483 2.41961257 -2.4375 2.75 C-3.53191406 2.97333008 -3.53191406 2.97333008 -4.6484375 3.20117188 C-9.58460359 4.34546492 -11.85860091 5.62501123 -14.6875 10.0625 C-15.265 10.825625 -15.8425 11.58875 -16.4375 12.375 C-17.05625 13.2103125 -17.05625 13.2103125 -17.6875 14.0625 C-17.6875 10.69736494 -17.22692963 8.65756586 -14.9453125 6.140625 C-9.93068089 1.69542043 -6.81451185 -0.08017073 0 0 Z " fill="#288B66" transform="translate(480.6875,332.9375)"/>
<path d="M0 0 C-0.33 0.66 -0.66 1.32 -1 2 C-3.38680882 2.62199881 -5.70368094 3.12583082 -8.125 3.5625 C-8.77726562 3.68818359 -9.42953125 3.81386719 -10.1015625 3.94335938 C-14.38710534 4.75540172 -18.67981985 5.41088452 -23 6 C-22 4 -22 4 -18.8671875 2.9296875 C-17.53874835 2.56956845 -16.20786147 2.21838988 -14.875 1.875 C-14.22273438 1.69324219 -13.57046875 1.51148438 -12.8984375 1.32421875 C-8.51602747 0.16774944 -4.56582955 -0.17788946 0 0 Z " fill="#247481" transform="translate(450,242)"/>
<path d="M0 0 C7.63054095 0.61044328 14.70189474 2.79621821 22 5 C22 5.33 22 5.66 22 6 C14.82129753 5.54841134 7.76156997 4.56473344 1 2 C0.67 1.34 0.34 0.68 0 0 Z " fill="#23727D" transform="translate(572,272)"/>
<path d="M0 0 C5 5 5 5 7.3125 7.5625 C10.58262457 10.52842693 13.9931747 12.22029348 18 14 C18 14.33 18 14.66 18 15 C11.52375046 15 8.5667878 12.34457657 3.91796875 8.0078125 C1.3215618 5.2897816 0 3.83917832 0 0 Z " fill="#216D77" transform="translate(664,371)"/>
<path d="M0 0 C-2.31819298 1.15909649 -4.60412529 2.25171887 -7 3.25 C-11.672168 5.97543133 -13.7807039 10.19152512 -16 15 C-16.35957762 11.22443495 -16.11727831 9.23004592 -14.375 5.8125 C-10.23235015 0.90673044 -6.342024 -0.45300171 0 0 Z " fill="#216976" transform="translate(712,220)"/>
<path d="M0 0 C3.68069887 1.53643852 5.98775204 3.78150945 8.75 6.625 C9.54921875 7.44226563 10.3484375 8.25953125 11.171875 9.1015625 C12.07679688 10.04128906 12.07679688 10.04128906 13 11 C12.34 11.66 11.68 12.32 11 13 C9.16052663 11.21427748 7.32842259 9.42197551 5.5 7.625 C4.71302734 6.86316406 4.71302734 6.86316406 3.91015625 6.0859375 C2.56846819 4.76167396 1.28004185 3.38394135 0 2 C0 1.34 0 0.68 0 0 Z " fill="#257686" transform="translate(777,255)"/>
<path d="M0 0 C2 1 2 1 3.0703125 3.765625 C3.41835938 4.91546875 3.76640625 6.0653125 4.125 7.25 C4.47820312 8.38953125 4.83140625 9.5290625 5.1953125 10.703125 C5.9124241 13.6411939 6.16917814 15.99990761 6 19 C2.18121448 13.27182172 0.72127994 6.78003141 0 0 Z " fill="#216F7C" transform="translate(258,597)"/>
<path d="M0 0 C-1 3 -1 3 -3 4.1875 C-7.41542381 5.38334395 -12.79456877 6.10271561 -17 4 C-17 3.34 -17 2.68 -17 2 C-15.75283203 2.03480469 -15.75283203 2.03480469 -14.48046875 2.0703125 C-13.39378906 2.08835937 -12.30710937 2.10640625 -11.1875 2.125 C-10.10855469 2.14820313 -9.02960937 2.17140625 -7.91796875 2.1953125 C-4.63580422 1.97562277 -3.13866739 0 0 0 Z " fill="#237381" transform="translate(769,372)"/>
<path d="M0 0 C0.33 0 0.66 0 1 0 C1.02722517 2.20826378 1.04649729 4.41662638 1.0625 6.625 C1.07410156 7.85476563 1.08570313 9.08453125 1.09765625 10.3515625 C1.00863924 13.67723791 0.63686087 16.74047588 0 20 C-2 18 -2 18 -2.01171875 15.390625 C-1.90472656 14.35421875 -1.79773438 13.3178125 -1.6875 12.25 C-1.57921875 11.1775 -1.4709375 10.105 -1.359375 9 C-0.99756883 5.97970498 -0.58072488 2.98658511 0 0 Z " fill="#206A73" transform="translate(250,487)"/>
<path d="M0 0 C0.66 0 1.32 0 2 0 C3.078125 1.64453125 3.078125 1.64453125 4.25 3.8125 C6.56619569 7.7189196 8.6607916 9.38541083 13 11 C13 11.66 13 12.32 13 13 C7.2215576 11.76176234 4.13470016 8.83989536 1 4 C0.33203125 1.7734375 0.33203125 1.7734375 0 0 Z " fill="#268663" transform="translate(371,512)"/>
<path d="M0 0 C0.58523438 0.21785156 1.17046875 0.43570312 1.7734375 0.66015625 C1.23074219 0.95148438 0.68804687 1.2428125 0.12890625 1.54296875 C-4.64958732 4.28091642 -7.23184601 6.29935567 -9.2265625 11.66015625 C-9.8865625 11.66015625 -10.5465625 11.66015625 -11.2265625 11.66015625 C-10.11655223 6.48010831 -7.91525569 4.03634256 -4.078125 0.6640625 C-2.2265625 -0.33984375 -2.2265625 -0.33984375 0 0 Z " fill="#2A8C67" transform="translate(382.2265625,427.33984375)"/>
<path d="M0 0 C0.80824219 0.10183594 1.61648438 0.20367187 2.44921875 0.30859375 C3.06410156 0.39238281 3.67898438 0.47617187 4.3125 0.5625 C4.3125 1.2225 4.3125 1.8825 4.3125 2.5625 C0.0225 2.5625 -4.2675 2.5625 -8.6875 2.5625 C-6.80760684 -1.19728632 -3.63897564 -0.474649 0 0 Z " fill="#287989" transform="translate(764.6875,397.4375)"/>
<path d="M0 0 C-0.66 0 -1.32 0 -2 0 C-2 0.66 -2 1.32 -2 2 C-3.41377782 2.36552803 -4.83120576 2.71695495 -6.25 3.0625 C-7.03890625 3.25972656 -7.8278125 3.45695313 -8.640625 3.66015625 C-11.10394822 4.01497267 -12.65604132 3.76877544 -15 3 C-13.25531628 2.29911844 -11.50398839 1.61475991 -9.75 0.9375 C-8.77546875 0.55464844 -7.8009375 0.17179688 -6.796875 -0.22265625 C-3.95992605 -1.01113787 -2.70590448 -1.02437812 0 0 Z " fill="#1A778F" transform="translate(599,775)"/>
<path d="M0 0 C-9.41002278 2.29612756 -9.41002278 2.29612756 -14 2 C-14 1.34 -14 0.68 -14 0 C-12.42074025 -0.39180108 -10.83631206 -0.76280736 -9.25 -1.125 C-8.36828125 -1.33382812 -7.4865625 -1.54265625 -6.578125 -1.7578125 C-3.67124507 -2.03088304 -2.43338652 -1.53508028 0 0 Z " fill="#267684" transform="translate(574,813)"/>
<path d="M0 0 C3.78699616 3.36621881 6.8272631 7.41641804 9 12 C8.67 12.66 8.34 13.32 8 14 C0 4.28571429 0 4.28571429 0 0 Z " fill="#216A76" transform="translate(775,296)"/>
<path d="M0 0 C0.33 0.99 0.66 1.98 1 3 C-0.36328125 5.04296875 -0.36328125 5.04296875 -2.3125 7.1875 C-2.94800781 7.90292969 -3.58351563 8.61835938 -4.23828125 9.35546875 C-6 11 -6 11 -8 11 C-6.63629701 8.00779732 -5.05091917 5.70973471 -2.875 3.25 C-2.33617187 2.63640625 -1.79734375 2.0228125 -1.2421875 1.390625 C-0.62730469 0.70226562 -0.62730469 0.70226562 0 0 Z " fill="#24737F" transform="translate(317,347)"/>
<path d="M0 0 C5.03985731 0.44469329 7.37634988 2.71343362 11 6 C10.01 6.33 9.02 6.66 8 7 C5.95703125 5.8203125 5.95703125 5.8203125 3.8125 4.125 C3.09707031 3.57070313 2.38164063 3.01640625 1.64453125 2.4453125 C1.10183594 1.96835937 0.55914063 1.49140625 0 1 C0 0.67 0 0.34 0 0 Z " fill="#287B89" transform="translate(697,337)"/>
<path d="M0 0 C3.08914085 0.33097938 4.0026931 1.00284699 6.1875 3.3125 C7.79407709 5.69466602 8.58574686 7.20379133 9 10 C8.34 10 7.68 10 7 10 C6.401875 8.906875 5.80375 7.81375 5.1875 6.6875 C3.70955303 4.08925871 2.30177067 1.95650507 0 0 Z " fill="#268864" transform="translate(643,429)"/>
<path d="M0 0 C2 2 2 2 2.25 5.5 C2 9 2 9 0 11 C-1.125 3.375 -1.125 3.375 0 0 Z " fill="#2C7E8C" transform="translate(679,285)"/>
<path d="M0 0 C0 3.60573896 -0.81707462 4.41336566 -3 7.1875 C-3.556875 7.90292969 -4.11375 8.61835938 -4.6875 9.35546875 C-5.120625 9.89816406 -5.55375 10.44085938 -6 11 C-6.33 10.34 -6.66 9.68 -7 9 C-4.69 6.03 -2.38 3.06 0 0 Z " fill="#1F6A76" transform="translate(279,346)"/>
<path d="M0 0 C2.64752004 2.57784846 4.94432065 4.91648098 7 8 C6.01 8 5.02 8 4 8 C2.61328125 6.46875 2.61328125 6.46875 1.3125 4.5 C0.87550781 3.8503125 0.43851562 3.200625 -0.01171875 2.53125 C-0.50091797 1.77328125 -0.50091797 1.77328125 -1 1 C-0.67 0.67 -0.34 0.34 0 0 Z " fill="#257280" transform="translate(288,713)"/>
<path d="M0 0 C2.66735273 2.48952921 4.55746343 4.63408134 6 8 C5.01 8 4.02 8 3 8 C1.02 4.535 1.02 4.535 -1 1 C-0.67 0.67 -0.34 0.34 0 0 Z " fill="#257280" transform="translate(264,680)"/>
<path d="M0 0 C3.91402949 1.26941497 5.79072873 2.51167694 8 6 C4.06830895 6 2.83572772 4.60580385 0 2 C0 1.34 0 0.68 0 0 Z " fill="#267583" transform="translate(749,271)"/>
<path d="M0 0 C0.66 0.33 1.32 0.66 2 1 C0.02 2.98 -1.96 4.96 -4 7 C-4.99 6.67 -5.98 6.34 -7 6 C-4.69 4.02 -2.38 2.04 0 0 Z " fill="#3095A9" transform="translate(602,652)"/>
<path d="M0 0 C2.97 0.99 5.94 1.98 9 3 C9 3.33 9 3.66 9 4 C5.14354879 4.22036864 2.50776784 3.60355101 -1 2 C-0.67 1.34 -0.34 0.68 0 0 Z " fill="#297A89" transform="translate(719,622)"/>
<path d="M0 0 C0 0.66 0 1.32 0 2 C-2.97 1.67 -5.94 1.34 -9 1 C-9 0.67 -9 0.34 -9 0 C-3.375 -1.125 -3.375 -1.125 0 0 Z " fill="#267684" transform="translate(577,241)"/>
<path d="M0 0 C0.33 0 0.66 0 1 0 C1 4.95 1 9.9 1 15 C0.67 15 0.34 15 0 15 C0 10.05 0 5.1 0 0 Z " fill="#45AF8A" transform="translate(368,472)"/>
<path d="M0 0 C3.3 0 6.6 0 10 0 C10 0.33 10 0.66 10 1 C6.7 1 3.4 1 0 1 C0 0.67 0 0.34 0 0 Z " fill="#49B38D" transform="translate(592,527)"/>
<path d="M0 0 C0.33 0 0.66 0 1 0 C1 3.3 1 6.6 1 10 C0.67 10 0.34 10 0 10 C0 6.7 0 3.4 0 0 Z " fill="#44AF8A" transform="translate(368,493)"/>
<path d="M0 0 C0.33 0 0.66 0 1 0 C1 3.3 1 6.6 1 10 C0.67 10 0.34 10 0 10 C0 6.7 0 3.4 0 0 Z " fill="#44AE8A" transform="translate(368,461)"/>
<path d="M0 0 C2.64 0 5.28 0 8 0 C8 0.33 8 0.66 8 1 C5.36 1 2.72 1 0 1 C0 0.67 0 0.34 0 0 Z " fill="#4AB28D" transform="translate(624,527)"/>
<path d="M0 0 C2.31 0 4.62 0 7 0 C7 0.33 7 0.66 7 1 C4.69 1 2.38 1 0 1 C0 0.67 0 0.34 0 0 Z " fill="#4AB38E" transform="translate(407,527)"/>
<path d="M0 0 C0.33 0 0.66 0 1 0 C1 2.31 1 4.62 1 7 C0.67 7 0.34 7 0 7 C0 4.69 0 2.38 0 0 Z " fill="#44AE8C" transform="translate(368,449)"/>
<path d="M0 0 C1.32 0.66 2.64 1.32 4 2 C2.35 2 0.7 2 -1 2 C-0.67 1.34 -0.34 0.68 0 0 Z " fill="#348A9A" transform="translate(377,788)"/>
<path d="M0 0 C2.475 0.495 2.475 0.495 5 1 C4.01 1.495 4.01 1.495 3 2 C2.01 1.34 1.02 0.68 0 0 Z " fill="#3895A6" transform="translate(707,616)"/>
<path d="M0 0 C1.98 0 3.96 0 6 0 C6 0.33 6 0.66 6 1 C4.02 1 2.04 1 0 1 C0 0.67 0 0.34 0 0 Z " fill="#4AB390" transform="translate(392,527)"/>
<path d="M0 0 C1.65 0 3.3 0 5 0 C5 0.33 5 0.66 5 1 C3.35 1 1.7 1 0 1 C0 0.67 0 0.34 0 0 Z " fill="#348C9C" transform="translate(448,814)"/>
<path d="M0 0 C1.32 0.33 2.64 0.66 4 1 C3.01 1.495 3.01 1.495 2 2 C1.34 1.34 0.68 0.68 0 0 Z " fill="#348A99" transform="translate(417,805)"/>
<path d="M0 0 C1 4 1 4 1 4 Z " fill="#3999A8" transform="translate(769,533)"/>
<path d="M0 0 C1 4 1 4 1 4 Z " fill="#44AE8A" transform="translate(368,488)"/>
<path d="M0 0 C4 1 4 1 4 1 Z " fill="#4AAE8A" transform="translate(632,424)"/>
<path d="M0 0 C4 1 4 1 4 1 Z " fill="#368F9E" transform="translate(522,233)"/>
<path d="M0 0 C3 1 3 1 3 1 Z " fill="#3C9AA7" transform="translate(369,592)"/>
<path d="" fill="#358D9C" transform="translate(0,0)"/>
<path d="M0 0 C3 1 3 1 3 1 Z " fill="#49B38D" transform="translate(604,527)"/>
<path d="M0 0 C3 1 3 1 3 1 Z " fill="#49B38C" transform="translate(580,527)"/>
<path d="M0 0 C3 1 3 1 3 1 Z " fill="#49B58D" transform="translate(576,527)"/>
<path d="M0 0 C3 1 3 1 3 1 Z " fill="#48B28C" transform="translate(428,527)"/>
<path d="M0 0 C3 1 3 1 3 1 Z " fill="#4BB58F" transform="translate(416,527)"/>
<path d="" fill="#44AC8B" transform="translate(0,0)"/>
<path d="" fill="#3B97A7" transform="translate(0,0)"/>
<path d="M0 0 C3 1 3 1 3 1 Z " fill="#4BB28A" transform="translate(437,424)"/>
<path d="M0 0 C0.66 0.66 1.32 1.32 2 2 C1.34 2 0.68 2 0 2 C0 1.34 0 0.68 0 0 Z " fill="#3997A8" transform="translate(745,416)"/>
<path d="" fill="#3997A9" transform="translate(0,0)"/>
<path d="M0 0 C0.99 0.495 0.99 0.495 2 1 C1.01 1.495 1.01 1.495 0 2 C0 1.34 0 0.68 0 0 Z " fill="#3899AB" transform="translate(732,342)"/>
<path d="M0 0 C0.33 0.66 0.66 1.32 1 2 C0.34 1.67 -0.32 1.34 -1 1 C-0.67 0.67 -0.34 0.34 0 0 Z " fill="#3896A7" transform="translate(785,317)"/>
<path d="M0 0 C3 1 3 1 3 1 Z " fill="#3D9BAB" transform="translate(468,271)"/>
<path d="M0 0 C3 1 3 1 3 1 Z " fill="#3B99A6" transform="translate(476,270)"/>
<path d="M0 0 C3 1 3 1 3 1 Z " fill="#3D9BA7" transform="translate(487,269)"/>
<path d="M0 0 C3 1 3 1 3 1 Z " fill="#3790A0" transform="translate(615,251)"/>
<path d="M0 0 C2 1 2 1 2 1 Z " fill="#348896" transform="translate(498,821)"/>
<path d="M0 0 C2 1 2 1 2 1 Z " fill="#348998" transform="translate(489,820)"/>
<path d="M0 0 C2 1 2 1 2 1 Z " fill="#358896" transform="translate(600,806)"/>
<path d="M0 0 C2 1 2 1 2 1 Z " fill="#338999" transform="translate(621,798)"/>
<path d="" fill="#338897" transform="translate(0,0)"/>
<path d="" fill="#348897" transform="translate(0,0)"/>
<path d="" fill="#358A9C" transform="translate(0,0)"/>
<path d="M0 0 C2 1 2 1 2 1 Z " fill="#3D99AA" transform="translate(486,688)"/>
<path d="" fill="#3997A8" transform="translate(0,0)"/>
<path d="" fill="#348B9A" transform="translate(0,0)"/>
<path d="" fill="#338B9B" transform="translate(0,0)"/>
<path d="" fill="#338A9A" transform="translate(0,0)"/>
<path d="M0 0 C2 1 2 1 2 1 Z " fill="#47AE92" transform="translate(477,620)"/>
<path d="" fill="#48AE8F" transform="translate(0,0)"/>
<path d="" fill="#348B99" transform="translate(0,0)"/>
<path d="M0 0 C2 1 2 1 2 1 Z " fill="#3D9BAA" transform="translate(329,592)"/>
<path d="" fill="#348D9D" transform="translate(0,0)"/>
<path d="" fill="#358E9E" transform="translate(0,0)"/>
<path d="M0 0 C2 1 2 1 2 1 Z " fill="#4BB58E" transform="translate(608,527)"/>
<path d="M0 0 C2 1 2 1 2 1 Z " fill="#48B48D" transform="translate(568,527)"/>
<path d="M0 0 C2 1 2 1 2 1 Z " fill="#48B28B" transform="translate(456,527)"/>
<path d="M0 0 C2 1 2 1 2 1 Z " fill="#4CB58E" transform="translate(452,527)"/>
<path d="M0 0 C2 1 2 1 2 1 Z " fill="#4BB68E" transform="translate(448,527)"/>
<path d="M0 0 C2 1 2 1 2 1 Z " fill="#49B38C" transform="translate(445,527)"/>
<path d="M0 0 C2 1 2 1 2 1 Z " fill="#4AB58D" transform="translate(436,527)"/>
<path d="M0 0 C2 1 2 1 2 1 Z " fill="#4AB48E" transform="translate(424,527)"/>
<path d="M0 0 C2 1 2 1 2 1 Z " fill="#4BB38F" transform="translate(400,527)"/>
<path d="" fill="#3997A7" transform="translate(0,0)"/>
<path d="" fill="#46AE8B" transform="translate(0,0)"/>
<path d="" fill="#48B18A" transform="translate(0,0)"/>
<path d="" fill="#47B289" transform="translate(0,0)"/>
<path d="" fill="#46AF89" transform="translate(0,0)"/>
<path d="" fill="#3A95A6" transform="translate(0,0)"/>
<path d="" fill="#378D9C" transform="translate(0,0)"/>
<path d="M0 0 C2 1 2 1 2 1 Z " fill="#4AAF8A" transform="translate(637,424)"/>
<path d="M0 0 C2 1 2 1 2 1 Z " fill="#4DB08B" transform="translate(629,424)"/>
<path d="M0 0 C2 1 2 1 2 1 Z " fill="#4DB38D" transform="translate(621,424)"/>
<path d="M0 0 C2 1 2 1 2 1 Z " fill="#4DB18B" transform="translate(613,424)"/>
<path d="M0 0 C2 1 2 1 2 1 Z " fill="#4BB28B" transform="translate(595,424)"/>
<path d="M0 0 C2 1 2 1 2 1 Z " fill="#4BB089" transform="translate(582,424)"/>
<path d="M0 0 C2 1 2 1 2 1 Z " fill="#4CB28B" transform="translate(389,424)"/>
<path d="" fill="#3A97A8" transform="translate(0,0)"/>
<path d="M0 0 C2 1 2 1 2 1 Z " fill="#3998A9" transform="translate(730,339)"/>
<path d="" fill="#3694A6" transform="translate(0,0)"/>
<path d="M0 0 C2 1 2 1 2 1 Z " fill="#3795A7" transform="translate(700,336)"/>
<path d="M0 0 C2 1 2 1 2 1 Z " fill="#46AF8E" transform="translate(465,336)"/>
<path d="M0 0 C2 1 2 1 2 1 Z " fill="#3794A7" transform="translate(778,307)"/>
<path d="M0 0 C2 1 2 1 2 1 Z " fill="#3A9BAB" transform="translate(626,293)"/>
<path d="" fill="#3697AB" transform="translate(0,0)"/>
<path d="M0 0 C2 1 2 1 2 1 Z " fill="#3B98A8" transform="translate(601,283)"/>
<path d="M0 0 C2 1 2 1 2 1 Z " fill="#3B99A9" transform="translate(584,278)"/>
<path d="M0 0 C2 1 2 1 2 1 Z " fill="#3C9AA9" transform="translate(441,277)"/>
<path d="M0 0 C2 1 2 1 2 1 Z " fill="#3591A0" transform="translate(361,272)"/>
<path d="M0 0 C2 1 2 1 2 1 Z " fill="#3A99A8" transform="translate(547,270)"/>
<path d="M0 0 C2 1 2 1 2 1 Z " fill="#3C9CAB" transform="translate(544,270)"/>
<path d="M0 0 C2 1 2 1 2 1 Z " fill="#3E9BA8" transform="translate(521,268)"/>
<path d="" fill="#358C9B" transform="translate(0,0)"/>
<path d="M0 0 C2 1 2 1 2 1 Z " fill="#3797A9" transform="translate(732,263)"/>
<path d="M0 0 C2 1 2 1 2 1 Z " fill="#3590A2" transform="translate(630,257)"/>
<path d="M0 0 C2 1 2 1 2 1 Z " fill="#3590A2" transform="translate(628,256)"/>
<path d="M0 0 C2 1 2 1 2 1 Z " fill="#338D9C" transform="translate(606,248)"/>
<path d="M0 0 C2 1 2 1 2 1 Z " fill="#368F9F" transform="translate(590,243)"/>
<path d="M0 0 C2 1 2 1 2 1 Z " fill="#358D9B" transform="translate(444,240)"/>
<path d="M0 0 C2 1 2 1 2 1 Z " fill="#3891A0" transform="translate(498,233)"/>
<path d="" fill="#338A97" transform="translate(0,0)"/>
<path d="" fill="#338997" transform="translate(0,0)"/>
<path d="" fill="#358A98" transform="translate(0,0)"/>
<path d="" fill="#358B97" transform="translate(0,0)"/>
<path d="" fill="#338899" transform="translate(0,0)"/>
<path d="" fill="#338996" transform="translate(0,0)"/>
<path d="" fill="#358B98" transform="translate(0,0)"/>
<path d="" fill="#368C9B" transform="translate(0,0)"/>
<path d="" fill="#328997" transform="translate(0,0)"/>
<path d="" fill="#328694" transform="translate(0,0)"/>
<path d="" fill="#348B99" transform="translate(0,0)"/>
<path d="" fill="#358998" transform="translate(0,0)"/>
<path d="" fill="#378A99" transform="translate(0,0)"/>
<path d="" fill="#338795" transform="translate(0,0)"/>
<path d="" fill="#358D9C" transform="translate(0,0)"/>
<path d="" fill="#328996" transform="translate(0,0)"/>
<path d="" fill="#348695" transform="translate(0,0)"/>
<path d="" fill="#348798" transform="translate(0,0)"/>
<path d="" fill="#338A9B" transform="translate(0,0)"/>
<path d="" fill="#348897" transform="translate(0,0)"/>
<path d="" fill="#358A98" transform="translate(0,0)"/>
<path d="" fill="#368796" transform="translate(0,0)"/>
<path d="" fill="#338C98" transform="translate(0,0)"/>
<path d="" fill="#338798" transform="translate(0,0)"/>
<path d="" fill="#328794" transform="translate(0,0)"/>
<path d="" fill="#318897" transform="translate(0,0)"/>
<path d="" fill="#328596" transform="translate(0,0)"/>
<path d="" fill="#328895" transform="translate(0,0)"/>
<path d="" fill="#348A9A" transform="translate(0,0)"/>
<path d="" fill="#358898" transform="translate(0,0)"/>
<path d="" fill="#338997" transform="translate(0,0)"/>
<path d="" fill="#358894" transform="translate(0,0)"/>
<path d="" fill="#348C9A" transform="translate(0,0)"/>
<path d="" fill="#338694" transform="translate(0,0)"/>
<path d="" fill="#338896" transform="translate(0,0)"/>
<path d="" fill="#338593" transform="translate(0,0)"/>
<path d="" fill="#338493" transform="translate(0,0)"/>
<path d="" fill="#358B9D" transform="translate(0,0)"/>
<path d="" fill="#348A9A" transform="translate(0,0)"/>
<path d="" fill="#358D99" transform="translate(0,0)"/>
<path d="" fill="#328898" transform="translate(0,0)"/>
<path d="" fill="#328598" transform="translate(0,0)"/>
<path d="" fill="#338797" transform="translate(0,0)"/>
<path d="" fill="#358998" transform="translate(0,0)"/>
<path d="" fill="#348897" transform="translate(0,0)"/>
<path d="" fill="#338796" transform="translate(0,0)"/>
<path d="" fill="#3C9BA8" transform="translate(0,0)"/>
<path d="" fill="#338795" transform="translate(0,0)"/>
<path d="" fill="#3D9BA7" transform="translate(0,0)"/>
<path d="" fill="#358A99" transform="translate(0,0)"/>
<path d="" fill="#328C9C" transform="translate(0,0)"/>
<path d="" fill="#338998" transform="translate(0,0)"/>
<path d="" fill="#358C98" transform="translate(0,0)"/>
<path d="" fill="#368B9C" transform="translate(0,0)"/>
<path d="" fill="#3D9BA9" transform="translate(0,0)"/>
<path d="" fill="#3C9AA7" transform="translate(0,0)"/>
<path d="" fill="#3C9AA8" transform="translate(0,0)"/>
<path d="" fill="#358999" transform="translate(0,0)"/>
<path d="" fill="#348B9A" transform="translate(0,0)"/>
<path d="" fill="#3F9BA6" transform="translate(0,0)"/>
<path d="" fill="#36889A" transform="translate(0,0)"/>
<path d="" fill="#419EAB" transform="translate(0,0)"/>
<path d="" fill="#36909E" transform="translate(0,0)"/>
<path d="" fill="#348B9A" transform="translate(0,0)"/>
<path d="" fill="#368D9A" transform="translate(0,0)"/>
<path d="" fill="#3C9AA8" transform="translate(0,0)"/>
<path d="" fill="#338C9D" transform="translate(0,0)"/>
<path d="" fill="#3E9CA6" transform="translate(0,0)"/>
<path d="" fill="#3898AA" transform="translate(0,0)"/>
<path d="" fill="#3C9CA7" transform="translate(0,0)"/>
<path d="" fill="#3F9BA8" transform="translate(0,0)"/>
<path d="" fill="#48AF91" transform="translate(0,0)"/>
<path d="" fill="#47AC92" transform="translate(0,0)"/>
<path d="" fill="#48B18F" transform="translate(0,0)"/>
<path d="" fill="#47B290" transform="translate(0,0)"/>
<path d="" fill="#48B390" transform="translate(0,0)"/>
<path d="" fill="#49B193" transform="translate(0,0)"/>
<path d="" fill="#48AD92" transform="translate(0,0)"/>
<path d="" fill="#358D9D" transform="translate(0,0)"/>
<path d="" fill="#3D9AA8" transform="translate(0,0)"/>
<path d="" fill="#3C97A5" transform="translate(0,0)"/>
<path d="" fill="#378B9B" transform="translate(0,0)"/>
<path d="" fill="#378E9E" transform="translate(0,0)"/>
<path d="" fill="#3A98AA" transform="translate(0,0)"/>
<path d="" fill="#3996A9" transform="translate(0,0)"/>
<path d="" fill="#3D9BA5" transform="translate(0,0)"/>
<path d="" fill="#46AB8F" transform="translate(0,0)"/>
<path d="" fill="#3E9EA5" transform="translate(0,0)"/>
<path d="" fill="#3C99A4" transform="translate(0,0)"/>
<path d="" fill="#3F9BA5" transform="translate(0,0)"/>
<path d="" fill="#3996A6" transform="translate(0,0)"/>
<path d="" fill="#3A98A7" transform="translate(0,0)"/>
<path d="" fill="#3C9DA9" transform="translate(0,0)"/>
<path d="" fill="#3894A6" transform="translate(0,0)"/>
<path d="" fill="#3C9AA6" transform="translate(0,0)"/>
<path d="" fill="#3793A3" transform="translate(0,0)"/>
<path d="" fill="#3C9BA7" transform="translate(0,0)"/>
<path d="" fill="#388E9F" transform="translate(0,0)"/>
<path d="" fill="#348A99" transform="translate(0,0)"/>
<path d="" fill="#3895A6" transform="translate(0,0)"/>
<path d="" fill="#3996A6" transform="translate(0,0)"/>
<path d="" fill="#368E9D" transform="translate(0,0)"/>
<path d="" fill="#368F9E" transform="translate(0,0)"/>
<path d="" fill="#368F9E" transform="translate(0,0)"/>
<path d="" fill="#388D9D" transform="translate(0,0)"/>
<path d="" fill="#49B38C" transform="translate(0,0)"/>
<path d="" fill="#358F9D" transform="translate(0,0)"/>
<path d="" fill="#3A99A9" transform="translate(0,0)"/>
<path d="" fill="#49B38F" transform="translate(0,0)"/>
<path d="" fill="#4CB58D" transform="translate(0,0)"/>
<path d="" fill="#4AB68E" transform="translate(0,0)"/>
<path d="" fill="#4AB48C" transform="translate(0,0)"/>
<path d="" fill="#4AB58E" transform="translate(0,0)"/>
<path d="" fill="#4AB38C" transform="translate(0,0)"/>
<path d="" fill="#4BB48E" transform="translate(0,0)"/>
<path d="" fill="#49B78D" transform="translate(0,0)"/>
<path d="" fill="#4AB58E" transform="translate(0,0)"/>
<path d="" fill="#4AB390" transform="translate(0,0)"/>
<path d="" fill="#4BB390" transform="translate(0,0)"/>
<path d="" fill="#4AB08E" transform="translate(0,0)"/>
<path d="" fill="#48AD8C" transform="translate(0,0)"/>
<path d="" fill="#46B08E" transform="translate(0,0)"/>
<path d="" fill="#46AC90" transform="translate(0,0)"/>
<path d="" fill="#45AD8C" transform="translate(0,0)"/>
<path d="" fill="#3B99A8" transform="translate(0,0)"/>
<path d="" fill="#46AD8C" transform="translate(0,0)"/>
<path d="" fill="#45AB8B" transform="translate(0,0)"/>
<path d="" fill="#47AC8D" transform="translate(0,0)"/>
<path d="" fill="#378E9C" transform="translate(0,0)"/>
<path d="" fill="#45B28B" transform="translate(0,0)"/>
<path d="" fill="#45AE8A" transform="translate(0,0)"/>
<path d="" fill="#3A96A5" transform="translate(0,0)"/>
<path d="" fill="#3A95A6" transform="translate(0,0)"/>
<path d="" fill="#3994A3" transform="translate(0,0)"/>
<path d="" fill="#48B189" transform="translate(0,0)"/>
<path d="" fill="#45AD87" transform="translate(0,0)"/>
<path d="" fill="#378F9F" transform="translate(0,0)"/>
<path d="" fill="#3A98A8" transform="translate(0,0)"/>
<path d="" fill="#3C98A7" transform="translate(0,0)"/>
<path d="" fill="#3A98A6" transform="translate(0,0)"/>
<path d="" fill="#47B08A" transform="translate(0,0)"/>
<path d="" fill="#3990A0" transform="translate(0,0)"/>
<path d="" fill="#46AE8B" transform="translate(0,0)"/>
<path d="" fill="#44AE88" transform="translate(0,0)"/>
<path d="" fill="#368F9E" transform="translate(0,0)"/>
<path d="" fill="#3993A2" transform="translate(0,0)"/>
<path d="" fill="#49B18D" transform="translate(0,0)"/>
<path d="" fill="#45B08C" transform="translate(0,0)"/>
<path d="" fill="#44AE8C" transform="translate(0,0)"/>
<path d="" fill="#46AE8C" transform="translate(0,0)"/>
<path d="" fill="#3C9AAA" transform="translate(0,0)"/>
<path d="" fill="#3A96A5" transform="translate(0,0)"/>
<path d="" fill="#3C9AAA" transform="translate(0,0)"/>
<path d="" fill="#37919F" transform="translate(0,0)"/>
<path d="" fill="#46AF8D" transform="translate(0,0)"/>
<path d="" fill="#46AD8A" transform="translate(0,0)"/>
<path d="" fill="#3794A6" transform="translate(0,0)"/>
<path d="" fill="#35919E" transform="translate(0,0)"/>
<path d="" fill="#4DB18B" transform="translate(0,0)"/>
<path d="" fill="#4BB087" transform="translate(0,0)"/>
<path d="" fill="#4DB08B" transform="translate(0,0)"/>
<path d="" fill="#4DB28C" transform="translate(0,0)"/>
<path d="" fill="#4BB08B" transform="translate(0,0)"/>
<path d="" fill="#4BB28D" transform="translate(0,0)"/>
<path d="" fill="#48AB87" transform="translate(0,0)"/>
<path d="" fill="#49AF87" transform="translate(0,0)"/>
<path d="" fill="#4BB28A" transform="translate(0,0)"/>
<path d="" fill="#4BB28D" transform="translate(0,0)"/>
<path d="" fill="#4DB38C" transform="translate(0,0)"/>
<path d="" fill="#4DB28D" transform="translate(0,0)"/>
<path d="" fill="#4DB38D" transform="translate(0,0)"/>
<path d="" fill="#4CB48E" transform="translate(0,0)"/>
<path d="" fill="#4EB48D" transform="translate(0,0)"/>
<path d="" fill="#4EB48C" transform="translate(0,0)"/>
<path d="" fill="#4DB48E" transform="translate(0,0)"/>
<path d="" fill="#3894A5" transform="translate(0,0)"/>
<path d="" fill="#36909F" transform="translate(0,0)"/>
<path d="" fill="#3997A8" transform="translate(0,0)"/>
<path d="" fill="#4AB389" transform="translate(0,0)"/>
<path d="" fill="#3C8F9E" transform="translate(0,0)"/>
<path d="" fill="#3997A7" transform="translate(0,0)"/>
<path d="" fill="#36909F" transform="translate(0,0)"/>
<path d="" fill="#3691A2" transform="translate(0,0)"/>
<path d="" fill="#3893A4" transform="translate(0,0)"/>
<path d="" fill="#3D9AA7" transform="translate(0,0)"/>
<path d="" fill="#3D99A5" transform="translate(0,0)"/>
<path d="" fill="#3D9BA8" transform="translate(0,0)"/>
<path d="" fill="#3C99A6" transform="translate(0,0)"/>
<path d="" fill="#48B189" transform="translate(0,0)"/>
<path d="" fill="#3D9BA6" transform="translate(0,0)"/>
<path d="" fill="#4BB28B" transform="translate(0,0)"/>
<path d="" fill="#3A96A6" transform="translate(0,0)"/>
<path d="" fill="#3A9AAB" transform="translate(0,0)"/>
<path d="" fill="#3894A4" transform="translate(0,0)"/>
<path d="" fill="#3594A6" transform="translate(0,0)"/>
<path d="" fill="#368D9B" transform="translate(0,0)"/>
<path d="" fill="#3897A8" transform="translate(0,0)"/>
<path d="" fill="#3B99AA" transform="translate(0,0)"/>
<path d="" fill="#3A95A6" transform="translate(0,0)"/>
<path d="" fill="#409DA8" transform="translate(0,0)"/>
<path d="" fill="#3D9AA9" transform="translate(0,0)"/>
<path d="" fill="#348D9C" transform="translate(0,0)"/>
<path d="" fill="#3695A2" transform="translate(0,0)"/>
<path d="" fill="#3A93A2" transform="translate(0,0)"/>
<path d="" fill="#3696A7" transform="translate(0,0)"/>
<path d="" fill="#3998A7" transform="translate(0,0)"/>
<path d="" fill="#3697AA" transform="translate(0,0)"/>
<path d="" fill="#358795" transform="translate(0,0)"/>
<path d="" fill="#368A9A" transform="translate(0,0)"/>
<path d="" fill="#358998" transform="translate(0,0)"/>
<path d="" fill="#3A98AA" transform="translate(0,0)"/>
<path d="" fill="#3D9BAA" transform="translate(0,0)"/>
<path d="" fill="#3695A4" transform="translate(0,0)"/>
<path d="" fill="#3996A5" transform="translate(0,0)"/>
<path d="" fill="#3999A9" transform="translate(0,0)"/>
<path d="" fill="#3693A5" transform="translate(0,0)"/>
<path d="" fill="#3692A6" transform="translate(0,0)"/>
<path d="" fill="#3696A7" transform="translate(0,0)"/>
<path d="" fill="#368D9C" transform="translate(0,0)"/>
<path d="" fill="#3897A9" transform="translate(0,0)"/>
<path d="" fill="#3696A7" transform="translate(0,0)"/>
<path d="" fill="#389BAD" transform="translate(0,0)"/>
<path d="" fill="#3C9AAA" transform="translate(0,0)"/>
<path d="" fill="#3996A5" transform="translate(0,0)"/>
<path d="" fill="#47B08F" transform="translate(0,0)"/>
<path d="" fill="#47AE8E" transform="translate(0,0)"/>
<path d="" fill="#348A97" transform="translate(0,0)"/>
<path d="" fill="#3796A7" transform="translate(0,0)"/>
<path d="" fill="#3A96A6" transform="translate(0,0)"/>
<path d="" fill="#379AB2" transform="translate(0,0)"/>
<path d="" fill="#3797A9" transform="translate(0,0)"/>
<path d="" fill="#3798AA" transform="translate(0,0)"/>
<path d="" fill="#3796A7" transform="translate(0,0)"/>
<path d="" fill="#3B96A6" transform="translate(0,0)"/>
<path d="" fill="#358C9D" transform="translate(0,0)"/>
<path d="" fill="#3695A8" transform="translate(0,0)"/>
<path d="" fill="#348C9A" transform="translate(0,0)"/>
<path d="" fill="#3995A5" transform="translate(0,0)"/>
<path d="" fill="#3796A8" transform="translate(0,0)"/>
<path d="" fill="#348B9C" transform="translate(0,0)"/>
<path d="" fill="#369AAE" transform="translate(0,0)"/>
<path d="" fill="#3895A7" transform="translate(0,0)"/>
<path d="" fill="#338B98" transform="translate(0,0)"/>
<path d="" fill="#3A99A8" transform="translate(0,0)"/>
<path d="" fill="#3C97A6" transform="translate(0,0)"/>
<path d="" fill="#3896A7" transform="translate(0,0)"/>
<path d="" fill="#3D98A9" transform="translate(0,0)"/>
<path d="" fill="#3595A8" transform="translate(0,0)"/>
<path d="" fill="#338A9A" transform="translate(0,0)"/>
<path d="" fill="#3795A7" transform="translate(0,0)"/>
<path d="" fill="#3699A9" transform="translate(0,0)"/>
<path d="" fill="#338B9C" transform="translate(0,0)"/>
<path d="" fill="#358F9F" transform="translate(0,0)"/>
<path d="" fill="#3997AB" transform="translate(0,0)"/>
<path d="" fill="#3C9BA8" transform="translate(0,0)"/>
<path d="" fill="#3C97A9" transform="translate(0,0)"/>
<path d="" fill="#3D99A7" transform="translate(0,0)"/>
<path d="" fill="#378FA0" transform="translate(0,0)"/>
<path d="" fill="#3798AA" transform="translate(0,0)"/>
<path d="" fill="#3898AA" transform="translate(0,0)"/>
<path d="" fill="#3C9BAB" transform="translate(0,0)"/>
<path d="" fill="#3A98A8" transform="translate(0,0)"/>
<path d="" fill="#3D98A9" transform="translate(0,0)"/>
<path d="" fill="#3D99A9" transform="translate(0,0)"/>
<path d="" fill="#3895A6" transform="translate(0,0)"/>
<path d="" fill="#3995A7" transform="translate(0,0)"/>
<path d="" fill="#3C9BA9" transform="translate(0,0)"/>
<path d="" fill="#358D9C" transform="translate(0,0)"/>
<path d="" fill="#3796A8" transform="translate(0,0)"/>
<path d="" fill="#318B9A" transform="translate(0,0)"/>
<path d="" fill="#3897A9" transform="translate(0,0)"/>
<path d="" fill="#338A99" transform="translate(0,0)"/>
<path d="" fill="#3897A8" transform="translate(0,0)"/>
<path d="" fill="#3B99A8" transform="translate(0,0)"/>
<path d="" fill="#348C9B" transform="translate(0,0)"/>
<path d="" fill="#3B98AA" transform="translate(0,0)"/>
<path d="" fill="#3795A7" transform="translate(0,0)"/>
<path d="" fill="#3B99A6" transform="translate(0,0)"/>
<path d="" fill="#3D9BA8" transform="translate(0,0)"/>
<path d="" fill="#328799" transform="translate(0,0)"/>
<path d="" fill="#3798A9" transform="translate(0,0)"/>
<path d="" fill="#3999A9" transform="translate(0,0)"/>
<path d="" fill="#3998A7" transform="translate(0,0)"/>
<path d="" fill="#3D99A9" transform="translate(0,0)"/>
<path d="" fill="#3A99A7" transform="translate(0,0)"/>
<path d="" fill="#3796A9" transform="translate(0,0)"/>
<path d="" fill="#3D9CA9" transform="translate(0,0)"/>
<path d="" fill="#3E9BA9" transform="translate(0,0)"/>
<path d="" fill="#3C9DAB" transform="translate(0,0)"/>
<path d="" fill="#3E9DA9" transform="translate(0,0)"/>
<path d="" fill="#348A9C" transform="translate(0,0)"/>
<path d="" fill="#3A91A2" transform="translate(0,0)"/>
<path d="" fill="#3893A3" transform="translate(0,0)"/>
<path d="" fill="#3593A7" transform="translate(0,0)"/>
<path d="" fill="#3998AA" transform="translate(0,0)"/>
<path d="" fill="#3897A9" transform="translate(0,0)"/>
<path d="" fill="#368F9E" transform="translate(0,0)"/>
<path d="" fill="#3A99AA" transform="translate(0,0)"/>
<path d="" fill="#348899" transform="translate(0,0)"/>
<path d="" fill="#378C9C" transform="translate(0,0)"/>
<path d="" fill="#3591A1" transform="translate(0,0)"/>
<path d="" fill="#3493A3" transform="translate(0,0)"/>
<path d="" fill="#368F9F" transform="translate(0,0)"/>
<path d="" fill="#3790A0" transform="translate(0,0)"/>
<path d="" fill="#348F9E" transform="translate(0,0)"/>
<path d="" fill="#378D9E" transform="translate(0,0)"/>
<path d="" fill="#3893A0" transform="translate(0,0)"/>
<path d="" fill="#37919F" transform="translate(0,0)"/>
<path d="" fill="#378F9C" transform="translate(0,0)"/>
<path d="" fill="#3691A0" transform="translate(0,0)"/>
<path d="" fill="#38909F" transform="translate(0,0)"/>
<path d="" fill="#38909E" transform="translate(0,0)"/>
<path d="" fill="#37909F" transform="translate(0,0)"/>
<path d="" fill="#36909E" transform="translate(0,0)"/>
<path d="" fill="#378E9A" transform="translate(0,0)"/>
<path d="" fill="#31899A" transform="translate(0,0)"/>
<path d="" fill="#348A9B" transform="translate(0,0)"/>
<path d="" fill="#348A9B" transform="translate(0,0)"/>
<path d="" fill="#328999" transform="translate(0,0)"/>
<path d="" fill="#328997" transform="translate(0,0)"/>
<path d="" fill="#308695" transform="translate(0,0)"/>
<path d="" fill="#2E8496" transform="translate(0,0)"/>
</svg>
